<svg width="24" height="24" viewBox="0 0 24 24" fill="none" xmlns="http://www.w3.org/2000/svg">
<g clip-path="url(#clip0_144_331)">
<path d="M11.7263 2.06595C11.6523 2.10595 11.5503 2.20595 11.5043 2.28795L11.4143 2.43995V5.93995V9.43795L9.65231 11.638C8.68631 12.85 7.89831 13.854 7.90631 13.878C7.93031 13.944 9.55631 14.972 9.60631 14.948C9.63831 14.94 10.1463 14.64 10.7403 14.284C11.7283 13.694 11.8303 13.64 12.0023 13.64C12.1743 13.64 12.2763 13.69 13.2383 14.27C13.8163 14.618 14.3243 14.918 14.3723 14.938C14.4383 14.97 14.5863 14.888 15.2783 14.438C15.7363 14.144 16.1063 13.886 16.1063 13.868C16.1063 13.852 15.3163 12.8479 14.3483 11.6359L12.5903 9.43995V8.55195V7.65995L14.8103 6.54995C17.3043 5.29995 17.2803 5.31795 17.2803 4.94795C17.2803 4.54995 17.3903 4.61996 14.6303 3.23195C11.9803 1.90595 12.0083 1.91395 11.7263 2.06595Z" fill="#003F3B"/>
<path d="M4.61812 17.934C3.24212 19.65 2.09412 21.112 2.05812 21.174C1.92212 21.436 2.03812 21.788 2.30812 21.924C2.46012 22.002 2.51612 22.002 12.0001 22.002C21.4841 22.002 21.5401 22.002 21.6921 21.924C21.9621 21.788 22.0781 21.436 21.9421 21.174C21.8841 21.056 16.9001 14.812 16.8701 14.812C16.8581 14.812 16.3741 15.12 15.7881 15.5C15.2061 15.88 14.6741 16.2079 14.6121 16.2259C14.5501 16.2499 14.4361 16.2579 14.3661 16.2459C14.2881 16.2339 13.7401 15.93 13.1161 15.554L12.0021 14.8859L10.8881 15.554C10.2621 15.93 9.71612 16.2339 9.63812 16.2459C9.56812 16.2579 9.45812 16.25 9.39612 16.23C9.33412 16.206 8.80612 15.878 8.22012 15.5C7.63412 15.12 7.14612 14.812 7.13812 14.812C7.12212 14.812 5.99012 16.214 4.61812 17.934Z" fill="#003F3B"/>
</g>
<defs>
<clipPath id="clip0_144_331">
<rect width="24" height="24" fill="white"/>
</clipPath>
</defs>
</svg>
