<svg width="16" height="21" viewBox="0 0 16 21" fill="none" xmlns="http://www.w3.org/2000/svg">
<path d="M3.82 1.03888C2.9 1.21888 2.18 1.95888 1.7 2.73888C0.88 4.07888 0.5 5.73888 0.5 7.29888C0.5 7.97888 0.52 8.61888 0.82 9.23888C1.08 9.81888 1.5 10.3389 2.02 10.6989C2.22 10.8389 2.8 11.0389 2.86 11.2589C3.02 11.8189 2.82 12.6189 2.8 13.1989C2.74 14.7589 2.68 16.3189 2.6 17.8789C2.54 19.0189 2.36 20.7189 3.92 20.9389C4.12 20.9589 4.38 20.9789 4.58 20.9389C5.28 20.8189 5.78 20.2389 5.88 19.5589C5.94 19.1789 5.86 18.7989 5.86 18.4189C5.84 17.4389 5.74 16.4589 5.74 15.4989C5.74 14.4389 5.64 13.3989 5.62 12.3389C5.62 11.9989 5.52 11.6389 5.58 11.2789C5.62 11.0189 6.3 10.7789 6.52 10.6189C7.04 10.2189 7.46 9.65888 7.72 9.05888C7.96 8.45888 7.98 7.85888 7.98 7.21888C7.98 5.59888 7.56 3.69888 6.58 2.37888C5.94 1.55888 4.96 0.798876 3.82 1.03888Z" fill="#003F3B"/>
<path d="M9.43956 1.01854C9.43956 2.57854 9.31956 4.13854 9.27956 5.69854C9.25956 6.29854 9.15956 6.93853 9.25956 7.53853C9.35956 8.21853 9.67956 8.85853 10.1796 9.33853C10.3796 9.53854 10.9996 9.77853 11.0596 10.0385C11.0996 10.1985 11.0396 10.4185 11.0396 10.5785C11.0396 11.1385 10.9996 11.6985 10.9596 12.2585C10.8796 13.5185 10.8396 14.8185 10.7996 16.0785C10.7796 16.8785 10.7396 17.6985 10.7196 18.4985C10.6996 18.9185 10.6396 19.3385 10.7196 19.7385C10.8796 20.3985 11.4596 20.9585 12.1596 20.9785C13.0396 21.0185 13.8196 20.5585 13.9996 19.6585C14.0796 19.2785 14.0196 18.8985 13.9996 18.5185C13.9596 17.7185 13.9196 16.9385 13.9196 16.1385C13.9196 14.8585 13.8396 13.5185 13.7596 12.2385C13.7196 11.6785 13.6796 11.1185 13.6796 10.5585C13.6796 10.3985 13.6196 10.1785 13.6596 10.0185C13.7196 9.75854 14.2596 9.55853 14.4596 9.37853C14.8796 9.01853 15.1996 8.47853 15.3596 7.93853C15.5796 7.19853 15.4596 6.41853 15.4396 5.67853C15.3996 4.11853 15.2796 2.55854 15.2796 0.998535H14.1996L13.9996 6.99854H13.2196L13.0196 0.998535H11.6996L11.4996 6.99854H10.7196L10.5196 0.998535H9.43956V1.01854Z" fill="#003F3B"/>
</svg>
