<svg width="24" height="24" viewBox="0 0 24 24" fill="none" xmlns="http://www.w3.org/2000/svg">
<path d="M18.164 2.02067C17.704 2.08067 17.264 2.24067 16.884 2.48067C16.564 2.68067 16.284 2.92067 16.064 3.20067C14.424 5.24067 16.004 7.64067 17.204 9.44067C17.504 9.88067 17.964 10.3607 18.184 10.8407C18.304 11.1207 18.164 11.4607 18.284 11.7407C18.364 11.9207 18.564 12.0007 18.764 11.9607C19.264 11.8607 19.044 11.2407 19.144 10.9207C19.284 10.4807 19.764 10.0207 20.024 9.64067C20.804 8.48067 21.824 7.08067 22.004 5.66067C22.264 3.50067 20.264 1.72067 18.164 2.02067ZM18.864 6.10067C17.864 6.36067 17.424 4.80067 18.444 4.54067C19.444 4.30067 19.884 5.84067 18.864 6.10067Z" fill="#003F3B"/>
<path d="M10.2034 9.74084C7.76342 7.80084 3.74342 8.50084 2.46342 11.4808C2.14342 12.2008 2.00342 12.9208 2.00342 13.7008C2.00342 14.6808 2.28342 15.6608 2.72342 16.5408C3.40342 17.9408 4.30342 19.2208 5.32342 20.4008C5.66342 20.7808 5.98342 21.1808 6.34342 21.5408C6.50342 21.7008 6.66342 21.9208 6.88342 21.9608C7.16342 22.0208 7.80342 22.0408 8.04342 21.9008C8.32342 21.7208 8.28342 21.3008 8.00342 21.1608C9.08342 20.0808 9.98342 18.8208 10.7634 17.5208C11.3234 16.5808 11.7634 15.5408 11.9234 14.4808C12.2234 12.7408 11.6034 10.8608 10.2034 9.74084ZM8.32342 15.7408C8.02342 15.9408 7.66342 16.0608 7.30342 16.1008C4.82342 16.4208 3.50342 13.0808 5.54342 11.6208C5.90342 11.3608 6.30342 11.2208 6.76342 11.1608C9.32342 10.8408 10.4034 14.4008 8.32342 15.7408Z" fill="#003F3B"/>
<path d="M18.1233 12.9014C17.9033 12.9614 17.7833 13.2214 17.5833 13.3414C17.2433 13.5414 16.6433 13.4814 16.3833 13.7614C16.1833 14.0014 16.2633 14.3614 16.5633 14.4614C16.8033 14.5414 17.1033 14.4614 17.3433 14.4014C17.8233 14.2814 18.3433 14.0414 18.6033 13.6014C18.8233 13.2214 18.5633 12.7814 18.1233 12.9014ZM14.7633 13.9614C14.1833 14.1614 13.6633 14.9014 13.4633 15.4614C13.3433 15.8014 13.5233 16.2614 13.9433 16.1414C14.3433 16.0214 14.5833 15.2614 14.8833 14.9814C15.0433 14.8414 15.2633 14.7414 15.3433 14.5414C15.5033 14.1614 15.1233 13.8614 14.7633 13.9614Z" fill="#003F3B"/>
<path d="M13.0835 16.9601C12.9035 16.9801 12.7835 17.1201 12.7035 17.2801C12.4835 17.7401 12.0435 18.4201 11.9635 18.9201C11.9235 19.2201 12.1635 19.4601 12.4635 19.4201C12.7035 19.3801 12.8235 19.1601 12.9235 18.9601C13.1635 18.5201 13.4835 17.9801 13.5635 17.4801C13.6235 17.2001 13.4035 16.9201 13.0835 16.9601ZM11.0635 19.9801C10.7635 20.0801 10.5035 20.3401 10.2035 20.4801C9.94352 20.6201 9.54352 20.6801 9.32352 20.9001C9.00352 21.2401 9.36352 21.7001 9.76352 21.6001C10.3235 21.4801 11.1235 21.1001 11.5035 20.6801C11.8235 20.3401 11.5035 19.8401 11.0635 19.9801Z" fill="#003F3B"/>
</svg>
