<svg width="24" height="24" viewBox="0 0 24 24" fill="none" xmlns="http://www.w3.org/2000/svg">
<g clip-path="url(#clip0_144_315)">
<path d="M7.03611 2.88199C5.09811 3.168 3.46011 4.35599 2.60811 6.08599C1.96811 7.39599 1.83011 8.89199 2.21011 10.526C2.58611 12.14 3.49211 13.598 5.25411 15.434C5.97811 16.188 7.78611 17.834 10.4441 20.148C11.6321 21.18 11.6201 21.172 12.0001 21.172C12.3681 21.172 12.3861 21.16 13.2161 20.442C15.8901 18.136 18.2181 15.936 19.2581 14.74C21.5201 12.134 22.3501 9.81999 21.8681 7.44799C21.5481 5.89199 20.4841 4.422 19.0941 3.614C16.9961 2.394 14.1821 2.622 12.2461 4.16199L12.0041 4.354L11.6801 4.09999C11.0121 3.59199 10.0781 3.154 9.28411 2.974C8.58411 2.822 7.69611 2.78399 7.03611 2.88199ZM13.2121 8.95799V10.17H14.4241H15.6361V11.402V12.634H14.4241H13.2121V13.846V15.058H12.0001H10.7881V13.846V12.634H9.57611H8.36411V11.402V10.17H9.57611H10.7881V8.95799V7.74599H12.0001H13.2121V8.95799Z" fill="#003F3B"/>
</g>
<defs>
<clipPath id="clip0_144_315">
<rect width="24" height="24" fill="white"/>
</clipPath>
</defs>
</svg>
