<svg width="24" height="24" viewBox="0 0 24 24" fill="none" xmlns="http://www.w3.org/2000/svg">
<g clip-path="url(#clip0_144_320)">
<path d="M11.2098 2.03003C7.8758 2.30203 4.9078 4.20403 3.2598 7.13003C1.8798 9.58803 1.6198 12.594 2.5478 15.284C3.0418 16.708 3.7758 17.89 4.8498 18.99C7.8558 22.074 12.4918 22.884 16.3678 21.002C18.4618 19.982 20.1978 18.192 21.1218 16.098C22.6478 12.648 22.1538 8.74603 19.8178 5.77003C19.2678 5.07003 18.1758 4.08203 17.4118 3.59603C16.5638 3.05403 15.5098 2.59003 14.5758 2.34603C13.8678 2.15803 13.3938 2.08203 12.6778 2.02603C12.0418 1.98003 11.8318 1.98003 11.2098 2.03003ZM12.4858 5.78003C12.5718 5.84003 12.6938 5.96403 12.7578 6.05203L12.8738 6.21803L12.8858 8.90803L12.8938 11.594L14.2118 12.92C15.6498 14.362 15.6498 14.366 15.6158 14.818C15.5938 15.108 15.4758 15.312 15.2238 15.492C15.0738 15.594 15.0158 15.608 14.7298 15.608C14.4438 15.608 14.3798 15.596 14.2358 15.492C14.1418 15.428 13.4218 14.724 12.6318 13.936C11.4458 12.746 11.1898 12.464 11.1518 12.324C11.1138 12.2 11.1058 11.338 11.1138 9.18203L11.1258 6.21404L11.2538 6.03003C11.4458 5.75803 11.6978 5.64203 12.0478 5.65803C12.2598 5.67203 12.3658 5.70203 12.4858 5.78003Z" fill="#003F3B"/>
</g>
<defs>
<clipPath id="clip0_144_320">
<rect width="24" height="24" fill="white"/>
</clipPath>
</defs>
</svg>
