<svg width="24" height="24" viewBox="0 0 24 24" fill="none" xmlns="http://www.w3.org/2000/svg">
<g clip-path="url(#clip0_144_325)">
<path d="M12.7221 2.02403C12.4521 2.11003 12.2141 2.31003 12.0741 2.57603C12.0081 2.69803 12.0001 2.83003 11.9881 3.85403L11.9761 5.00003H13.9701H15.9681V5.99603V6.99203H13.9741H11.9801V7.98803V8.98403H12.9761H13.9721V9.98003V10.976H12.9761H11.9801V11.992V13.008H13.9741H15.9681V14.004V15H13.9741H11.9801V16V16.996H12.9761H13.9721V17.992V18.988H12.9721H11.9761L11.9881 20.13C12.0001 21.216 12.0041 21.282 12.0861 21.432C12.1841 21.616 12.3761 21.804 12.5661 21.904C12.6941 21.974 12.8601 21.978 15.9861 21.978H19.2701L19.4301 21.892C19.5161 21.846 19.6521 21.736 19.7301 21.65C20.0121 21.338 19.9921 22.1 19.9921 11.992C19.9921 1.88403 20.0121 2.64803 19.7301 2.33403C19.6521 2.24803 19.5161 2.13803 19.4301 2.09203L19.2701 2.00603L16.0461 1.99803C14.2701 1.99603 12.7781 2.00803 12.7221 2.02403Z" fill="#003F3B"/>
<path d="M5.47586 4.284L4.00586 5.956L4.98386 5.968L5.96186 5.97599V13.988V22H6.97786H7.99386V13.988V5.97599L8.97186 5.968L9.94986 5.956L8.47986 4.284C7.67386 3.366 6.99786 2.616 6.97986 2.616C6.96186 2.616 6.28186 3.364 5.47586 4.284Z" fill="#003F3B"/>
</g>
<defs>
<clipPath id="clip0_144_325">
<rect width="24" height="24" fill="white"/>
</clipPath>
</defs>
</svg>
