<svg width="24" height="24" viewBox="0 0 24 24" fill="none" xmlns="http://www.w3.org/2000/svg">
<path d="M11.2418 2.00317C11.3018 2.00317 11.3418 2.00317 11.4018 2.00317C11.4218 2.02317 11.4618 2.02317 11.4818 2.00317C11.6218 2.00317 11.7618 2.00317 11.9018 2.00317C12.1618 2.04317 12.3218 2.18318 12.3618 2.42318C12.4218 2.70318 12.3418 2.96317 12.0818 3.12318C11.6618 3.40317 11.3018 3.72317 10.9618 4.08317C9.98183 5.08317 9.40182 6.28317 9.24182 7.66317C9.02182 9.52317 9.52182 11.1832 10.7418 12.6032C11.8018 13.8232 13.1418 14.5432 14.7418 14.7432C16.4818 14.9632 18.0618 14.5632 19.4418 13.4632C19.9618 13.0632 20.4018 12.5832 20.7818 12.0432C20.8418 11.9632 20.8818 11.9032 20.9418 11.8232C21.2818 11.4232 21.9018 11.5632 22.0018 12.0632C22.0018 12.2032 22.0018 12.3432 22.0018 12.4832C21.9818 12.5032 21.9818 12.5432 22.0018 12.5632C22.0018 12.6232 22.0018 12.6832 22.0018 12.7632C21.9618 13.3632 21.8618 13.9632 21.7018 14.5432C21.2418 16.2432 20.4018 17.7432 19.1618 19.0232C17.8418 20.3632 16.2618 21.2632 14.4618 21.7232C13.8218 21.8832 13.1818 21.9832 12.5218 21.9832C11.4618 22.0032 10.4218 21.9632 9.40183 21.6632C8.16183 21.3032 7.02183 20.7632 6.00183 19.9832C4.88183 19.1432 3.96182 18.0832 3.28182 16.8632C2.60182 15.6632 2.18183 14.3632 2.06183 12.9832C1.98183 12.0632 1.98182 11.1232 2.14182 10.2032C2.46182 8.48317 3.16182 6.94317 4.28182 5.58317C5.38182 4.24317 6.74182 3.28317 8.34182 2.64317C9.26182 2.28317 10.2018 2.02317 11.2018 2.00317C11.2018 2.02317 11.2218 2.02317 11.2418 2.00317Z" fill="#003F3B"/>
<path d="M18.1018 5.4826C18.4218 5.4826 18.7018 5.4826 18.9818 5.4826C19.3618 5.4826 19.6218 5.7426 19.6218 6.0826C19.6218 6.4226 19.3618 6.6626 19.0018 6.6626C18.2618 6.6626 17.5018 6.6626 16.7618 6.6626C16.4818 6.6626 16.2818 6.5626 16.1618 6.3026C16.0618 6.0426 16.1218 5.8226 16.3218 5.6226C16.7418 5.2026 17.1818 4.7826 17.6418 4.3226C17.3218 4.3226 17.0418 4.3226 16.7618 4.3226C16.3818 4.3226 16.1218 4.0826 16.1218 3.7426C16.1218 3.4026 16.3818 3.1626 16.7618 3.1626C17.5018 3.1626 18.2418 3.1626 18.9818 3.1626C19.2818 3.1626 19.5018 3.2826 19.5818 3.5226C19.6818 3.7826 19.6018 4.0026 19.4218 4.2026C18.9818 4.6026 18.5618 5.0226 18.1018 5.4826Z" fill="#003F3B"/>
<path d="M12.9415 8.98348C12.6215 8.98348 12.3415 8.98348 12.0615 8.98348C11.6815 8.98348 11.4215 8.74349 11.4215 8.40349C11.4215 8.06349 11.6815 7.82349 12.0615 7.82349C12.8015 7.82349 13.5415 7.82349 14.2815 7.82349C14.5615 7.82349 14.7615 7.92348 14.8815 8.18348C15.0015 8.44348 14.9215 8.68349 14.7215 8.86349C14.3015 9.28349 13.8815 9.70349 13.4215 10.1635C13.7415 10.1635 14.0015 10.1635 14.2615 10.1635C14.6615 10.1635 14.9215 10.4035 14.9215 10.7435C14.9215 11.1035 14.6615 11.3435 14.2415 11.3435C13.5215 11.3435 12.7815 11.3435 12.0615 11.3435C11.7815 11.3435 11.5615 11.2435 11.4615 10.9835C11.3415 10.7235 11.4415 10.4835 11.6415 10.3035C12.0815 9.86348 12.5015 9.44348 12.9415 8.98348Z" fill="#003F3B"/>
</svg>
