<svg width="100" height="100" viewBox="0 0 100 100" fill="none" xmlns="http://www.w3.org/2000/svg">
<g clip-path="url(#clip0_175_470)">
<path d="M17.5003 32.25C17.5003 32.25 17.167 25.8333 21.2503 26.5C21.2503 26.5 25.7503 27.3333 24.8337 32.25C24.8337 32.25 30.5003 37.5833 28.917 41.0833C28.917 41.0833 22.167 43.25 18.5837 38.25C18.5837 38.25 15.917 41.25 13.667 40.3333C13.667 40.3333 15.417 33.9167 17.5003 32.25Z" fill="#DACDA5"/>
<path d="M76.167 29.4167C76.167 29.4167 68.917 27.9167 68.667 38.1667C68.667 38.1667 73.3337 36.9167 73.3337 35.75C73.3337 35.75 83.5837 39.0833 83.7503 38.1667C83.8337 38.0833 84.8337 29.1667 76.167 29.4167Z" fill="#DACDA5"/>
<path d="M38.7497 79.8333L38.333 63.8333L32.083 57.25L43.9997 51L50.583 57.9167L57.4163 51L68.6663 56.9167L62.583 63.9167L62.333 79.8333H38.7497Z" fill="#DACDA5"/>
<path d="M61 71.8333C61 78.5833 61 79.0833 61.3333 79.3333C61.9167 79.8333 62.5 79.9167 63.0833 79.4167L63.5833 79L63.6667 71.8333C63.75 66.1667 63.8333 64.5833 64 64.1667C64.25 63.75 67.8333 59.9167 68.0833 59.9167C68.1667 59.9167 68.1667 59.9167 68.25 62.75C68.25 64.5833 68.3333 66.9167 68.3333 69.4167C68.3333 77.5833 68.4167 79 68.5 79.1667C68.75 79.5833 69.1667 79.8333 69.6667 79.75C70.1667 79.6667 70.6667 79.3333 70.8333 78.75C70.9167 78.3333 71 75.0833 71 68.5V67.75C70.9167 58.0833 70.9167 58.0833 69.6667 56.25L69.5833 56.0833C68.6667 54.6667 67.5833 54 62.75 51.9167C60.6667 51 58.4167 49.9167 58.25 49.6667C58 49.3333 57.9167 48.9167 57.9167 47.9167V46.5L59.0833 45.25C60.3333 43.8333 61.4167 41.9167 61.8333 40.25C62 39.6667 62.1667 37.9167 62.25 36.6667C62.3333 34.5833 62.4167 34.1667 62.75 33.9167C63.4167 33.4167 63.6667 32.5833 63.6667 31.1667C63.5833 27 61.0833 23.0833 57.3333 21.1667C55.3333 20.1667 54.5 20 51.25 20C49.6667 20 48 20 47.6667 20C44 20.5833 40.5833 23 38.9167 26.25C38.0833 27.9167 37.75 29.3333 37.5833 31.75C37.4167 34.1667 37.6667 35.3333 38.4167 36.0833C38.8333 36.5833 39 36.9167 39.1667 38.3333C39.5 41.25 40.4167 43.1667 42.3333 45.25L43.4167 46.4167V47.8333C43.4167 48.9167 43.3333 49.3333 43.0833 49.5833C42.9167 49.8333 40.8333 50.8333 38.5 51.8333C33.6667 53.9167 32.5833 54.5833 31.6667 56L31.5833 56.1667C30.3333 58 30.3333 58 30.25 67.6667V68.4167C30.25 75 30.25 78.25 30.4167 78.6667C30.5833 79.1667 31 79.5833 31.5833 79.6667C32.0833 79.75 32.5 79.5 32.75 79.0833C32.8333 78.9167 32.9167 77.5 32.9167 69.3333C32.9167 66.8333 32.9167 64.5 33 62.6667C33.0833 59.8333 33.0833 59.8333 33.1667 59.8333C33.4167 59.8333 37.0833 63.6667 37.25 64.0833C37.4167 64.5 37.5 66 37.5833 71.75L37.6667 78.9167L38.1667 79.3333C38.75 79.8333 39.3333 79.75 39.9167 79.25C40.1667 79 40.25 78.4167 40.25 71.75C40.25 71.1667 40.25 70.6667 40.25 70.1667C40.25 63.1667 40.25 63.1667 37.5 60.4167C37.3333 60.25 37.0833 60 36.9167 59.75C35 57.75 34.5 57.3333 34.5 57C34.5 56.8333 34.5833 56.8333 34.6667 56.6667C35 56.3333 43 52.6667 43.4167 52.6667C43.5833 52.6667 45.5 54.5833 46.4167 55.4167L49.1667 58.25L49.25 78.8333L49.75 79.25C50 79.5 50.4167 79.6667 50.5833 79.6667C50.75 79.6667 51.1667 79.5 51.4167 79.25L51.9167 78.8333L52 58.25L54.75 55.4167C55.6667 54.5 57.5833 52.6667 57.75 52.6667C58.1667 52.6667 66.25 56.3333 66.5 56.6667C66.5833 56.75 66.6667 56.8333 66.6667 57C66.6667 57.3333 66.25 57.75 64.25 59.75C64 60 63.8333 60.1667 63.6667 60.4167C60.9167 63.1667 60.9167 63.1667 60.9167 70.1667C61 70.75 61 71.3333 61 71.8333ZM50.5833 56.1667L45.4167 51L45.6667 50.4167C45.8333 50.0833 45.9167 49.5 45.9167 49.0833C45.9167 48.3333 46 48.3333 46.0833 48.3333C46.1667 48.3333 46.8333 48.5 47.5 48.6667C48.3333 48.9167 49.3333 49 50.5833 49C51.8333 49 52.75 48.9167 53.6667 48.6667C54.3333 48.5 55 48.3333 55.0833 48.3333C55.0833 48.3333 55.25 48.3333 55.25 49.0833C55.25 49.5 55.3333 50.0833 55.5 50.4167L55.75 51.0833L50.5833 56.1667ZM56.8333 43.75C55.0833 45.5 53.1667 46.3333 50.5833 46.3333C48 46.3333 46.0833 45.5 44.3333 43.75C42.8333 42.25 41.9167 40.3333 41.6667 38C41.5833 36.9167 41.5833 36.9167 42.1667 36.5833C42.5 36.4167 43.0833 36 43.5833 35.5833C44.3333 35 44.5 34.8333 44.5 34.3333C44.5 33.5833 44 33 43.3333 33C43.0833 33 42.3333 33.3333 41.75 33.75C40.9167 34.3333 40.5833 34.5833 40.3333 34.4167C40.0833 34.25 40.0833 33.6667 40.1667 32.25C40.25 31.0833 40.4167 29.6667 40.5833 29.0833C41.4167 26.3333 43.75 24 46.5 23.1667C47.9167 22.6667 48.1667 22.6667 51.0833 22.75C53.3333 22.75 54.0833 22.8333 54.9167 23.1667C58.3333 24.4167 60.5 27.1667 61 31L61.1667 32H61.0833L59.5 32.25C57.5833 32.5 53.75 32.4167 52.3333 32C50.8333 31.5833 49.1667 30.75 47.8333 29.75C47.0833 29.1667 46.5 28.8333 46.1667 28.8333C45.5 28.8333 45 29.3333 45 30.0833C45 30.5833 45.1667 30.8333 45.9167 31.5833C47 32.5833 49.6667 33.9167 51.5833 34.5C52.6667 34.8333 53.5833 34.9167 56.25 35L59.5833 35.0833V35.1667V37.0833C59.4167 40 58.6667 42 56.8333 43.75Z" fill="#003F3B"/>
<path d="M27.5833 48.8333C28.4167 48 28.9167 47.3334 29.3333 46.4167C30.25 44.5834 30.4167 43.75 30.3333 40.4167C30.25 37.75 30.25 37.5834 29.75 36.4167C29.1667 35 27.9167 33.3333 27 32.5833L26.3333 32.0834L26.4167 30.9167C26.5 29.4167 26.25 28.3334 25.3333 27.25C24.1667 25.8334 22 25 20.25 25.4167C18.6667 25.75 17.3333 26.8333 16.5833 28.4167C16.25 29.1667 16.1667 29.5834 16.1667 30.75V32.0834L15 33.25C12.9167 35.4167 12.25 37.1667 12.25 40.9167C12.25 44.6667 12.9167 46.5 15 48.5834L16.1667 49.75V51.25C16.1667 52.3334 16.0833 52.8334 15.9167 53.0834C15.8333 53.25 14.6667 53.9167 13.1667 54.75C10.3333 56.1667 9.58333 56.75 8.91667 58.1667L8.33333 59.0834L8.25 65C8.25 68 8.25 71.0834 8.33333 71.3334C8.41667 71.5834 8.66667 71.8334 8.91667 72C9.16667 72.0834 9.33333 72.1667 9.5 72.1667C9.66667 72.1667 9.75 72.1667 10 72.0834C10.25 72 10.5833 71.75 10.6667 71.5834C10.8333 71.3334 10.8333 68.5 10.8333 66.0834V61.0834L11.8333 62.0834C12.5 62.75 13.0833 63.4167 13.1667 63.75C13.3333 64.0834 13.4167 65.0834 13.4167 67.6667C13.4167 68.9167 13.4167 71.1667 13.5833 71.5C13.75 71.9167 14.1667 72.1667 14.6667 72.1667C15.0833 72.1667 15.5 71.9167 15.6667 71.5834C15.8333 71.3334 15.8333 68.9167 15.8333 67.5834C15.8333 62.75 15.8333 62.6667 13.3333 60.1667C12.25 59.0833 11.75 58.4167 11.6667 58.25C11.8333 58.1667 12.9167 57.5833 14.3333 56.8333L16.8333 55.5833L18.25 57L19.75 58.5V64.75C19.75 69 19.8333 71.1667 19.9167 71.5C20.0833 71.9167 20.5 72.1667 21 72.1667C21.4167 72.1667 21.8333 71.9167 22 71.5834C22.1667 71.3334 22.1667 67.75 22.1667 64.8334V58.5L23.6667 57L25.0833 55.5L26.25 56.0834C27.3333 56.5834 27.5 56.6667 27.9167 56.4167C28.1667 56.3333 28.5 56 28.5833 55.75C28.8333 54.9167 28.5833 54.5 27.5 53.9167C26.9167 53.5833 26.4167 53.1667 26.3333 53C26.25 52.8333 26.1667 52.0834 26.1667 51.25V49.9167L27.5833 48.8333ZM22.6667 28.25C23.25 28.6667 23.8333 29.6667 23.8333 30.3334V30.8334L23.3333 30.75C22.8333 30.6667 22.0833 30.5834 21.4167 30.5834C20.8333 30.5834 20.3333 30.5833 19.75 30.6667L18.6667 30.8334V30.5C18.6667 29.5833 19.5833 28.3333 20.5 28C21.0833 27.75 22.0833 27.9167 22.6667 28.25ZM26.1667 40.3334C24.25 40.5834 21.8333 39.6667 20.1667 38.0834C19.5 37.4167 19.0833 37.1667 18.5833 37.1667C18.1667 37.1667 17.75 37.4167 17.1667 37.9167C16.3333 38.5834 14.9167 39.4167 14.75 39.4167C14.75 39.3334 14.75 39 14.9167 38.5C15.3333 36.6667 16.4167 35.0834 18 34.0834C19.5833 33.1667 21.4167 32.9167 23.0833 33.4167C23.8333 33.6667 25 34.25 25.5 34.75C26.75 35.9167 27.75 37.9167 27.75 39.4167C27.75 40.0834 27.75 40.0834 26.1667 40.3334ZM17.5 40.8334C18.0833 40.5 18.5 40.25 18.5833 40.1667C18.6667 40.25 19.0833 40.5 19.5 40.8334C21.25 42.0834 22.8333 42.75 25 42.9167C25.75 43 26.6667 42.9167 27.0833 42.8334C27.5 42.75 27.75 42.6667 27.8333 42.75C27.9167 42.9167 27.5 44.5 27.0833 45.3334C25.9167 47.5 23.75 48.75 21.3333 48.75C18 48.75 15.3333 46.3334 14.9167 42.9167L14.8333 42.0834L15.6667 41.8334C16 41.5834 16.9167 41.1667 17.5 40.8334ZM18.5833 52.0834C18.5833 51.5 18.6667 51.0834 18.75 51C18.75 51 18.8333 51 18.9167 51C19.0833 51.0834 19.75 51.1667 20.25 51.25C21.25 51.3334 22.9167 51.25 23.5833 51C23.6667 51 23.75 51 23.75 51C23.8333 51.0834 23.9167 51.5 23.9167 52.0834L24 53.3334L21.3333 56L18.5833 53.25V52.0834Z" fill="#003F3B"/>
<path d="M91.7505 63.6667L91.6671 56.3333L91.2505 55.5C90.4171 54 89.8338 53.5 85.6671 51.5C83.2505 50.3334 81.7505 49.4167 81.5838 49.25C81.4171 49 81.3338 48.5834 81.3338 47.9167C81.3338 46.9167 81.3338 46.8334 82.0005 46.1667C83.2505 44.75 84.0005 42.75 84.0005 40.6667C84.0005 39.6667 84.0838 39.6667 84.2505 39.6667C84.4171 39.6667 84.7505 39.5 85.0005 39.1667C85.3338 38.75 85.3338 38.5834 85.2505 36.5C85.1671 35.25 85.0838 34 84.9171 33.5C84.1671 31.1667 82.2505 29.25 79.9171 28.5C78.8338 28.1667 75.1671 27.9167 73.7505 28.1667C70.6671 28.6667 68.0838 30.9167 67.3338 33.8334C67.0005 35 67.0005 38.6667 67.2505 39.1667C67.3338 39.3334 67.6671 39.5834 67.9171 39.6667C68.3338 39.6667 68.3338 39.6667 68.3338 40.8334C68.3338 42.9167 69.0005 44.5834 70.2505 46.0834L70.9171 46.8334L70.8338 47.9167C70.7505 49 70.7505 49 70.0838 49.6667C69.5838 50.0833 69.4171 50.5 69.4171 50.8334C69.4171 51.0834 69.5838 51.4167 69.8338 51.6667C70.3338 52.1667 70.6671 52.1667 71.3338 51.8334L71.7505 51.5834L74.7505 54.5834V62.9167C74.7505 68.5 74.8338 71.4167 74.9171 71.6667C75.0838 72 75.5005 72.25 76.0005 72.25C76.5005 72.25 76.9171 72 77.0838 71.5834C77.2505 71.25 77.2505 68.8334 77.2505 62.9167V54.6667L80.1671 51.75L87.1671 55.25L86.0005 56.5C85.3338 57.25 84.5838 58.1667 84.3338 58.75L83.9171 59.6667L83.8338 65.5C83.7505 71.3334 83.9171 71.5834 84.0005 71.6667C84.1671 72 84.5838 72.25 85.0838 72.25C85.5838 72.25 86.0005 72 86.2505 71.5834C86.3338 71.25 86.4171 69.3334 86.4171 65.75C86.4171 61.5834 86.5005 60.3334 86.6671 59.9167C86.7505 59.6667 87.4171 58.9167 88.0005 58.25L89.0838 57.25V64.1667C89.0838 65.3334 89.0838 71.3334 89.2505 71.5834C89.3338 71.75 89.6671 72 89.9171 72.0834C90.0838 72.1667 90.2505 72.1667 90.4171 72.1667C90.5838 72.1667 90.7505 72.0834 91.0005 72C91.3338 71.8334 91.5838 71.5834 91.5838 71.3334C91.7505 71.0834 91.7505 67.4167 91.7505 63.6667ZM70.9171 38.9167L71.4171 38.75C71.6671 38.6667 72.3338 38.3334 72.8338 37.9167L73.6671 37.3334L75.0838 37.9167C75.8338 38.25 77.1671 38.6667 78.0005 38.8334C78.8338 39 79.9171 39.25 80.3338 39.3334L81.1671 39.4167V40.75C81.1671 41.8334 81.0838 42.25 80.7505 43C79.9171 44.8333 78.0838 46 76.0838 46C74.4171 46 73.0838 45.4167 72.0838 44.1667C71.1671 43.1667 70.8338 42.0834 70.8338 40.25V38.9167H70.9171ZM72.0838 35.25C71.7505 35.5834 71.0005 36 70.5005 36.3334L69.5838 36.8334V35.8334C69.5838 33.25 71.3338 31.0834 73.8338 30.5834C74.2505 30.5 75.5005 30.4167 76.5838 30.5C78.5838 30.5834 78.7505 30.5834 79.6671 31.0834C81.5005 32 82.4171 33.5 82.5838 35.75L82.6671 37H82.2505C80.5838 37 77.0838 36.0834 74.9171 35.0834C74.1671 34.75 73.7505 34.5834 73.4171 34.5834C73.0005 34.5 72.6671 34.75 72.0838 35.25ZM73.4171 48.8333C73.5005 48.5833 73.5005 48.4167 73.5838 48.3334H73.6671C73.7505 48.3334 73.8338 48.3334 73.9171 48.3334C74.1671 48.4167 74.7505 48.5 75.2505 48.5834C76.1671 48.6667 77.3338 48.5834 78.3338 48.3334C78.5005 48.25 78.6671 48.25 78.7505 48.3334C78.8338 48.4167 78.8338 48.5834 78.8338 48.75C78.9171 49.25 78.8338 49.3334 77.5005 50.6667L76.0838 52.0834L74.7505 50.75C73.3338 49.4167 73.3338 49.4167 73.4171 48.8333Z" fill="#003F3B"/>
</g>
<defs>
<clipPath id="clip0_175_470">
<rect width="100" height="100" fill="white"/>
</clipPath>
</defs>
</svg>
