<svg width="100" height="100" viewBox="0 0 100 100" fill="none" xmlns="http://www.w3.org/2000/svg">
<g clip-path="url(#clip0_175_460)">
<path d="M44.9173 38.75L48.4173 37.75L47.334 29.9167L54.1673 26.9167L56.584 20.4167L55.9173 9H45.1673L43.7507 13.1667L28.834 14.6667L30.084 22.6667L38.1673 25.5L43.6673 24.25L45.084 28.25L41.1673 33.75L44.9173 38.75Z" fill="#DACDA5"/>
<path d="M66.2503 50L62.8337 51.25V57.75L56.5837 61.8333L57.917 68.6667L50.0003 71.4167V76.6667L42.417 77.1667L45.2503 83.3333L44.8337 91.5833L56.2503 82.9167L58.917 78.9167L70.167 73.3333L71.5003 61.9167L66.2503 50Z" fill="#DACDA5"/>
<path d="M68.2502 74.9167C69.2502 74.5 70.4169 73.75 70.5836 73.5833C70.6669 73.4167 71.0836 70.6667 71.4169 67.5833L72.0836 61.9167L65.1669 46.75L60.0002 39.6667L54.8336 32.5833L56.8336 29.75L58.8336 26.9167L64.1669 23.5833C67.2502 21.6667 69.6669 20 69.8336 19.8333C70.1669 19.3333 70.0836 18.75 69.6669 18.3333C69.5002 18.1667 66.9169 17.3333 63.4169 16.25C62.8336 16.0833 57.4169 14.4167 57.2502 14.25C57.1669 14.0833 57.0002 12.6667 57.0002 11.6667V11.5833C56.9169 9.33333 56.9169 9.25 56.4169 8.91667L56.0002 8.5H50.3336C45.5002 8.5 44.5836 8.5 44.3336 8.75C44.0836 8.91667 43.7502 9.66667 43.4169 10.75L42.9169 12.5L35.8336 13.1667C28.5002 13.8333 28.1669 13.9167 27.9169 14.6667C27.7502 15.1667 29.1669 23.4167 29.4169 23.9167C29.5836 24.1667 31.0836 24.75 34.0002 25.6667L38.3336 27.0833L40.4169 26.5833C41.4169 26.3333 42.5836 26.0833 42.7502 26.0833C43.0002 26.0833 43.3336 26.9167 43.4169 27.1667L43.7502 28.25L41.8336 30.8333C40.6669 32.4167 39.9169 33.5 39.9169 33.9167C39.9169 34.25 40.1669 34.5833 40.5836 35.1667L41.3336 36C43.7502 38.6667 45.1669 40.1667 45.9169 40.9167L46.0002 41L50.5002 45.9167C50.8336 46.3333 51.4169 47 52.3336 47.9167C53.8336 49.5 54.7502 50.6667 54.7502 50.9167C54.8336 51.1667 55.0836 53.8333 55.4169 56.8333C55.7502 59.8333 56.2502 63.5 56.5836 65.0833L56.6669 65.5833C57.0836 67.8333 57.0836 67.8333 57.0836 67.9167C57.0002 68 56.4169 68.1667 53.4169 69.1667C53.1669 69.25 52.9169 69.3333 52.7502 69.4167C49.3336 70.5833 49.3336 70.5833 49.3336 72.9167C49.3336 73.0833 49.3336 73.25 49.3336 73.4167V75.5833H45.6669C42.3336 75.5833 42.0836 75.5833 41.7502 75.9167C41.0836 76.5 41.1669 76.8333 42.5836 79.75L43.9169 82.5833V86.5833C43.9169 89.75 44.0002 90.6667 44.1669 91C44.3336 91.25 44.5002 91.4167 44.8336 91.5C45.1669 91.5833 45.5002 91.5833 45.7502 91.4167C45.9169 91.3333 48.6669 89.3333 51.4169 87.25L56.7502 83.25L59.4169 79.25L61.0836 78.4167C61.3336 78.3333 61.5002 78.1667 61.7502 78.0833L61.8336 78L68.2502 74.9167ZM61.1669 75.5833C60.6669 75.8333 60.1669 76 59.7502 76.25L57.7502 77.25L55.0002 81.4167L50.8336 84.5833L46.5836 87.8333V82L44.6669 78.25H47.9169C48.3336 78.25 48.7502 78.25 49.0836 78.25C51.8336 78.25 51.8336 78.0833 51.8336 75.6667C51.8336 75.5 51.8336 75.3333 51.8336 75.0833L51.9169 72.5L55.6669 71.25C58.5836 70.25 59.4169 69.9167 59.6669 69.5833C59.9169 69.1667 59.9169 69 59.1669 65.1667C58.6669 62.4167 58.1669 59.3333 57.7502 55.5C57.3336 51.8333 57.0002 49.6667 56.9169 49.5833C56.6669 49.1667 52.0002 44 51.5836 43.8333L48.3336 39.9167C48.0836 39.6667 46.7502 38.0833 45.5002 36.6667C45.4169 36.5833 43.0002 33.9167 43.0836 33.6667C43.1669 33.5833 43.9169 32.4167 44.8336 31.1667C45.9169 29.75 46.5002 28.75 46.5002 28.5833C46.5002 27.9167 45.0002 23.75 44.6669 23.4167C44.1669 23 43.6669 23.0833 41.0836 23.8333L38.6669 24.5L35.3336 23.4167C34.3336 23.0833 31.9169 22.25 31.8336 22.1667C31.6669 22 30.7502 16.6667 30.7502 16.3333C30.7502 16.3333 30.7502 16.3333 30.7502 16.25C30.8336 16.25 31.1669 16.1667 32.7502 16C34.0002 15.9167 35.6669 15.75 37.5836 15.5833C39.2502 15.4167 44.4169 15 44.7502 14.75C45.0002 14.5833 45.2502 13.9167 45.6669 12.8333L46.2502 11.0833H46.3336L50.4169 11H54.5836L54.6669 13.25C54.7502 15.0833 54.8336 15.5 55.1669 15.8333C55.4169 16.1667 56.7502 16.6667 60.5002 17.8333C65.5836 19.5 65.5836 19.5 65.5836 19.5C65.5836 19.5833 65.5836 19.5833 64.3336 20.3333C63.8336 20.6667 62.7502 21.3333 61.4169 22.1667L57.2502 24.75L54.6669 28.4167C52.9169 30.8333 52.0836 32.25 52.0836 32.5C52.0836 32.8333 54.6669 36.5 57.5002 40.4167L63.0002 47.9167L65.8336 54.25C66.7502 56.3333 68.7502 60.5833 68.7502 60.6667C68.7502 60.75 68.7502 60.8333 67.1669 60.8333C65.7502 60.8333 65.6669 60.8333 65.2502 61.25C65.0002 61.5 64.8336 61.8333 64.8336 62.1667C64.8336 62.5 65.0002 62.8333 65.2502 63.0833C65.5836 63.5 65.7502 63.5 67.5002 63.5H69.4169L69.3336 64.0833C69.2502 64.3333 69.0836 66.0833 68.8336 67.9167L68.3336 72.1667L67.6669 72.5L61.1669 75.5833Z" fill="#003F3B"/>
<path d="M49.25 19.1667C48.25 19.1667 48 19.25 47.6667 19.5834C47.4167 19.8334 47.25 20.1667 47.25 20.5C47.25 20.8334 47.4167 21.1667 47.6667 21.4167C48 21.75 48.1667 21.8334 49.25 21.8334C50.3333 21.8334 50.5 21.75 50.8333 21.4167C51.0833 21.1667 51.25 20.8334 51.25 20.5C51.25 20.1667 51.0833 19.8334 50.8333 19.5834C50.5 19.1667 50.3333 19.1667 49.25 19.1667Z" fill="#003F3B"/>
<path d="M54.667 19.1667C53.667 19.1667 53.417 19.25 53.0837 19.5834C52.8337 19.8334 52.667 20.1667 52.667 20.5C52.667 20.8334 52.8337 21.1667 53.0837 21.4167C53.417 21.75 53.5837 21.8334 54.667 21.8334C55.7503 21.8334 55.917 21.75 56.2503 21.4167C56.5003 21.1667 56.667 20.8334 56.667 20.5C56.667 20.1667 56.5003 19.8334 56.2503 19.5834C55.8337 19.1667 55.667 19.1667 54.667 19.1667Z" fill="#003F3B"/>
</g>
<defs>
<clipPath id="clip0_175_460">
<rect width="100" height="100" fill="white"/>
</clipPath>
</defs>
</svg>
