<svg width="100" height="100" viewBox="0 0 100 100" fill="none" xmlns="http://www.w3.org/2000/svg">
<g clip-path="url(#clip0_175_494)">
<path d="M42.2497 28.4166C43.8605 28.4166 45.1663 27.2973 45.1663 25.9166C45.1663 24.5359 43.8605 23.4166 42.2497 23.4166C40.6388 23.4166 39.333 24.5359 39.333 25.9166C39.333 27.2973 40.6388 28.4166 42.2497 28.4166Z" fill="#DACDA5"/>
<path d="M26.75 75.1666L30.75 67.9166L35.0833 64.9166L41.9167 65.7499L47.9167 61.3333H52.9167L58.1667 65.6666L63.6667 64.9166L70.1667 67.9166L73.0833 74.5833L63.25 82.9999L50.9167 90.4999L38.0833 84.2499L26.75 75.1666Z" fill="#DACDA5"/>
<path d="M86.6663 35.5L86.583 22.9166L86.1663 21.9166C85.333 20.0833 83.833 19 81.583 18.6666C80.9163 18.5833 79.083 18.3333 77.4997 18.25C75.9163 18.0833 74.2497 17.9166 73.6663 17.9166C72.833 17.8333 72.6663 17.8333 72.333 18.1666C71.9163 18.5833 71.833 19.3333 72.2497 19.8333C72.583 20.3333 73.4163 20.5 77.7497 20.9166C82.583 21.4166 83.083 21.5833 83.7497 22.8333C84.083 23.5 84.083 23.8333 83.9997 37.75C83.9163 53.5833 83.9997 52.25 82.7497 56.0833C81.4163 60.1666 78.4163 65.5833 74.9163 70.3333C73.833 71.75 73.4997 72 73.4997 71.3333C73.4997 71.1666 73.1663 70.3333 72.7497 69.5833C71.4163 66.8333 68.583 64.5833 65.583 63.8333C64.1663 63.5 61.6663 63.5 60.2497 63.9166L59.1663 64.1666L57.9997 63C56.4163 61.5 54.583 60.5833 51.9163 60L51.4163 59.9166V58.0833C51.4163 56.75 51.4997 56.25 51.6663 56.25C51.7497 56.25 52.4997 56.0833 53.2497 56C57.7497 55.3333 61.9163 52.6666 64.6663 48.8333C66.7497 45.8333 68.083 41.8333 67.9163 38.9166C67.9163 38.1666 67.833 37.9166 67.4163 37.6666C66.9997 37.3333 66.833 37.3333 65.083 37.5C61.083 37.9166 58.083 39.25 54.9997 41.8333C54.1663 42.5833 52.583 44.3333 51.833 45.5C51.583 45.9166 51.4997 45.6666 51.4997 40.9166V35.9166L52.2497 35.8333C53.4163 35.6666 55.833 34.75 57.2497 34.0833C61.833 31.75 65.4163 27.5833 67.083 22.6666C67.7497 20.5 67.9997 18.8333 67.9997 16.3333C67.9997 14.4166 67.9997 14.0833 67.6663 13.75C67.083 13.0833 66.6663 13.0833 64.9997 13.4166C59.7497 14.5 55.4997 17.3333 52.4997 21.6666L51.583 23L51.4997 21.9166C51.4163 20.4166 51.333 20.0833 50.833 19.9166C50.1663 19.5833 49.7497 19.6666 49.2497 20.1666L48.833 20.5833V25.6666V30.75L47.4163 29.3333L45.9997 27.9166L46.1663 27.25C46.583 25.6666 46.2497 24.4166 45.1663 23.3333C43.6663 21.9166 41.583 21.8333 39.9997 23.1666C39.083 24 38.6663 24.9166 38.583 26.1666C38.583 27.75 39.4163 29.0833 40.833 29.6666C41.4997 30 42.9997 30 43.6663 29.75C44.083 29.5833 44.2497 29.75 46.4997 31.9166L48.833 34.25V37.5833L48.7497 40.9166L48.083 40C47.6663 39.5 46.833 38.5 46.083 37.75C42.9997 34.8333 39.6663 33.25 35.4997 32.75C32.583 32.4166 32.2497 32.75 32.583 35.6666C33.2497 42 36.9997 47.25 42.6663 49.9166C44.4997 50.75 46.333 51.3333 47.833 51.5L48.833 51.5833V55.8333V60L47.9163 60.1666C46.1663 60.5833 44.2497 61.5833 42.833 63L41.4997 64.25L40.583 63.9166C38.333 63.1666 34.9997 63.4166 32.6663 64.5C32.1663 64.75 31.7497 65 31.4163 65.25C30.083 66.0833 27.4997 68.25 26.6663 71.9166C25.583 70.5833 24.583 69.25 23.583 67.8333C20.4163 63.1666 17.6663 57.4166 16.7497 53.6666C16.4163 52.25 16.4163 51.75 16.333 38.1666C16.333 28.4166 16.333 23.9166 16.4997 23.5C16.833 22.5 17.7497 21.75 19.7497 21.25C30.4163 18.1666 44.2497 13.5 48.333 11.5833C49.833 10.8333 50.4997 10.9166 53.1663 12.25C55.583 13.4166 55.9997 13.5 56.583 13.0833C57.083 12.75 57.083 11.6666 56.6663 11.25C56.4997 11.0833 55.2497 10.4166 53.833 9.74996C51.583 8.58329 51.1663 8.49996 50.083 8.41663C49.333 8.41663 48.6663 8.41663 48.2497 8.58329C47.9163 8.74996 46.833 9.16663 45.7497 9.66663C41.833 11.5 31.7497 14.8333 21.7497 17.6666C18.2497 18.6666 16.1663 19.3333 15.6663 19.6666C14.833 20.1666 14.2497 21 13.7497 22.1666L13.333 23V37.0833C13.333 52.6666 13.333 52.9166 14.4997 56.3333C15.583 59.75 18.083 64.5833 20.833 68.6666C26.9997 78 35.333 85.25 45.6663 90.3333L48.333 91.6666H49.9163H51.4997L54.333 90.25C59.083 87.9166 63.333 85.0833 67.2497 81.8333C77.9997 72.8333 85.6663 60.25 86.583 50.25C86.6663 48.8333 86.6663 43.6666 86.6663 35.5ZM51.4997 30.5833C52.083 25.25 54.9163 20.6666 59.083 17.9166C60.4997 17 61.4163 16.5833 63.1663 16C64.9997 15.4166 64.9997 15.4166 64.9997 16.8333C64.9997 20.5833 63.083 25.1666 60.2497 28C58.6663 29.5833 57.2497 30.5833 55.2497 31.5833C53.7497 32.3333 51.583 32.9166 51.4163 32.75C51.333 32.5833 51.4163 31.6666 51.4997 30.5833ZM42.4997 26.9166C42.083 27 41.9163 26.9166 41.4997 26.5C40.9163 25.9166 40.833 25.5 41.333 24.8333C41.7497 24.25 42.583 24.25 43.1663 24.75C43.9163 25.5 43.4997 26.6666 42.4997 26.9166ZM48.4163 48.6666C47.7497 48.6666 45.833 48.1666 44.583 47.75C41.333 46.5 38.333 43.8333 36.7497 40.75C35.9163 39.1666 35.083 36.5833 35.083 35.5833V35L36.083 35.0833C36.583 35.1666 37.7497 35.4166 38.4997 35.6666C41.6663 36.75 44.833 39.3333 46.583 42.25C47.4997 43.75 48.4997 46.4166 48.6663 47.8333C48.7497 48.5833 48.7497 48.6666 48.4163 48.6666ZM51.4163 52.5833C51.583 51.1666 52.4997 48.5833 53.333 47.1666C54.2497 45.6666 56.1663 43.5833 57.6663 42.5C58.9997 41.5 60.9997 40.5833 62.583 40.1666C64.333 39.75 64.9997 39.6666 64.9997 40.0833C64.9997 40.8333 64.583 42.5833 64.083 43.75C62.833 47 60.333 49.8333 56.9997 51.6666C55.9163 52.25 53.333 53.1666 52.083 53.3333L51.2497 53.4166L51.4163 52.5833ZM70.9163 75.25C70.583 75.6666 69.583 76.6666 68.833 77.4166C64.2497 81.75 59.583 85.0833 53.7497 87.9166C50.333 89.5833 50.083 89.5833 47.083 88.0833C39.9997 84.5833 33.7497 79.8333 28.583 74.1666C28.9163 72.6666 30.083 68.6666 32.833 67.3333C33.083 67.25 33.2497 67.0833 33.4163 67C35.6663 65.8333 38.333 65.75 40.833 66.8333C42.333 67.5 42.583 67.4166 43.7497 65.9166C44.9163 64.4166 46.333 63.3333 47.7497 62.8333C51.2497 61.6666 54.833 62.8333 56.9997 65.6666C57.4163 66.1666 57.833 66.6666 57.9163 66.8333C58.333 67.1666 58.9997 67.0833 59.833 66.75C62.7497 65.5 66.583 66.25 68.9163 68.5833C70.083 69.75 70.7497 71.0833 71.2497 73L71.583 74.4166L70.9163 75.25Z" fill="#003F3B"/>
<path d="M52.5833 68.9166C51.5 68.0833 50 67.6666 48.9167 68C47.0833 68.5833 46 70.0833 46 72C46 74.9166 49.1667 76.8333 51.8333 75.5C54.25 74.25 54.6667 70.6666 52.5833 68.9166ZM49.4167 73.25C48.25 72.75 48.25 71.3333 49.3333 70.6666C49.8333 70.4166 50.0833 70.4166 50.5833 70.75C51.0833 71 51.3333 71.3333 51.3333 72C51.3333 73 50.4167 73.5833 49.4167 73.25Z" fill="#003F3B"/>
<path d="M39.2498 71.9166C38.3332 71.9166 37.3332 71.9166 36.9998 72C36.3332 72.1666 35.9998 72.9166 36.1665 73.6666C36.3332 74.4166 37.1665 74.6666 39.2498 74.5833C40.6665 74.5 40.9998 74.5 41.3332 74.1666C41.8332 73.6666 41.8332 72.8333 41.3332 72.3333C40.9998 72 40.7498 71.9166 39.2498 71.9166Z" fill="#003F3B"/>
<path d="M63.5827 71.9166C62.5827 71.9166 61.5827 71.9166 61.2493 72C60.4993 72.25 60.166 73 60.4993 73.75C60.8327 74.5 61.5827 74.6666 63.5827 74.5833C65.5827 74.5 65.9993 74.25 65.9993 73.25C66.0827 72.1666 65.666 71.9166 63.5827 71.9166Z" fill="#003F3B"/>
<path d="M49.0826 81.0833C47.9992 81.0833 46.9992 81.0833 46.7492 81.1666C46.3325 81.3333 45.9159 82.2499 46.0826 82.6666C46.4159 83.4999 46.5825 83.5833 48.8325 83.5833C50.9159 83.5833 50.9992 83.5832 51.3325 83.0832C51.6659 82.8332 51.6659 82.4999 51.6659 82.1666C51.4159 81.1666 51.1659 81.0833 49.0826 81.0833Z" fill="#003F3B"/>
</g>
<defs>
<clipPath id="clip0_175_494">
<rect width="100" height="100" fill="white"/>
</clipPath>
</defs>
</svg>
