<svg width="100" height="100" viewBox="0 0 100 100" fill="none" xmlns="http://www.w3.org/2000/svg">
<g clip-path="url(#clip0_175_480)">
<path d="M61.417 70.3333L67.5837 76.5L83.2503 60.8333L77.417 54.8333L61.417 70.3333Z" fill="#DACDA5"/>
<path d="M23.584 56.1666L37.4173 70.3333L43.5007 64.3333L29.5007 50.1666L23.584 56.1666Z" fill="#DACDA5"/>
<path d="M27 16.1666L27.3333 16.4166C27.8333 16.8333 28.5833 16.8333 29.0833 16.4166L29.4167 16.1666L29.5 13C29.5833 9.49998 29.4167 9.16665 28.9167 8.83331C28.5 8.58331 28.0833 8.58331 27.6667 8.83331C27.1667 9.16665 27.0833 9.49998 27.0833 13L27 16.1666Z" fill="#DACDA5"/>
<path d="M72.6673 16.4166L73.0007 16.1666L73.084 13C73.1673 9.49998 73.0007 9.16665 72.5007 8.83331C72.084 8.58331 71.6673 8.58331 71.2507 8.83331C70.7507 9.16665 70.584 9.33331 70.584 12.8333V16L70.9173 16.3333C71.4173 16.8333 72.1673 16.9166 72.6673 16.4166Z" fill="#DACDA5"/>
<path d="M20.0007 21.5833C20.4173 21.75 20.4173 21.75 20.834 21.5833C21.4173 21.4166 21.7507 20.6666 21.6673 20.1666C21.584 20 20.7507 19 17.5007 15.6666L13.4173 11.5833H12.834C12.334 11.5833 12.1673 11.6666 11.9173 11.9166C11.6673 12.1666 11.584 12.4166 11.584 12.8333C11.584 13.3333 11.584 13.4166 15.5007 17.3333C17.834 19.75 19.7507 21.4166 20.0007 21.5833Z" fill="#DACDA5"/>
<path d="M79 21.5833C79.75 22 79.8334 22 84.3334 17.5L88.3334 13.5V12.9166C88.3334 12.0833 87.9167 11.6666 87.0834 11.6666H86.5L82.5834 15.5833C80.25 17.9166 78.5 19.8333 78.3334 20.0833C78.0834 20.5833 78.3334 21.25 79 21.5833Z" fill="#DACDA5"/>
<path d="M85.0004 60.3333L78.8337 54.1667L78.7504 52.6667C78.5837 51.0833 78.0837 48.8333 77.4171 47.25L76.8337 45.9167L78.6671 44.0833C80.8337 42 81.3337 41.0833 81.3337 39.25C81.3337 38.25 81.2504 37.9167 80.9171 37.1667C80.1671 35.5833 78.5004 34.3333 76.9171 34.1667C76.0004 34.0833 75.9171 33.9167 75.7504 33C75.4171 30.75 73.5004 28.8333 71.3337 28.5833C70.5004 28.5 70.3337 28.3333 70.2504 27.4167C70.0004 25.25 68.0837 23.3333 65.9171 23.0833L64.9171 22.9167L64.7504 21.8333C64.5004 20.1667 63.3337 18.5833 61.8337 17.9167C60.8337 17.4167 59.1671 17.3333 58.1671 17.6667C57.0837 18 56.5837 18.4167 53.5004 21.5833L50.1671 24.9167L48.0004 22.8333C46.8337 21.75 45.6671 20.8333 45.3337 20.5833C44.6671 20.25 44.5004 20.1667 43.0004 20.1667C41.5837 20.1667 41.3337 20.25 40.7504 20.5833C39.2504 21.4167 38.1671 22.9167 37.9171 24.4167L37.7504 25.5L36.6671 25.6667C34.5837 25.9167 32.6671 27.8333 32.4171 29.9167C32.3337 30.8333 32.2504 31 31.4171 31.1667C29.5004 31.5 28.1671 32.4167 27.3337 34.0833C26.8337 35.0833 26.6671 36.9167 27.0837 38L27.5004 39.1667L26.3337 39.75C24.6671 40.5833 23.7504 42.25 23.7504 44.25C23.7504 46 24.1671 46.75 25.9171 48.5833L27.7504 50.4167L18.0837 59.8333C12.0004 66 8.91707 69.0833 8.7504 69.4167C8.58373 69.8333 8.66707 70.3333 9.08373 70.6667C9.41707 71 9.91707 71.0833 10.3337 70.9167C10.5837 70.75 13.0837 68.5 17.0004 64.5833L23.5004 58.0833L35.5837 70.1667L26.1671 79.6667C20.7504 85.0833 16.9171 89 16.7504 89.25C16.4171 89.6667 16.5004 90.25 16.9171 90.75C17.1671 91.0833 17.2504 91.1667 17.8337 91.1667H18.3337L31.4171 78.0833C31.5837 77.9167 44.6671 64.9167 45.0837 64.6667C45.1671 64.5833 45.3337 64.5833 45.4171 64.5833C45.8337 64.5833 46.4171 65 48.0004 66C50.7504 67.8333 51.3337 68.0833 53.0837 68.6667C54.2504 69 54.8337 69.0833 56.3337 69.0833H58.4171L58.5004 69.1667L69.5837 80.25C78.4171 89.0834 80.6671 91.1667 81.0004 91.3333C81.4171 91.4167 81.8337 91.3333 82.1671 91C82.5004 90.6667 82.5837 90.25 82.5004 89.75C82.4171 89.5 81.1671 88.0833 76.0004 82.9167L69.2504 76.1667L83.2504 62.5C83.4171 62.5 83.5837 62.5 86.6671 65.5833C89.5837 68.4167 89.5837 68.4167 90.0837 68.4167C90.5004 68.4167 90.9171 68.1667 91.1671 67.8333C91.4171 67.5 91.4171 67.0833 91.2504 66.6667C91.0004 66.5 88.4171 63.8333 85.0004 60.3333ZM40.3337 25.1667C40.3337 24.1667 40.4171 24 41.0837 23.3333C41.8337 22.5833 41.9171 22.5833 43.0004 22.6667L44.1671 22.75L51.3337 29.9167V31C51.3337 31.9167 51.2504 32.1667 50.6671 32.75C50.2504 33.1667 49.7504 33.5 49.3337 33.5833C49.0837 33.6667 48.8337 33.6667 48.6671 33.6667C47.6671 33.6667 46.9171 32.9167 43.9171 29.9167L40.3337 26.3333V25.1667ZM35.2504 29.25C35.5837 28.6667 36.1671 28.3333 36.7504 28.1667C38.1671 27.8333 38.5837 28.1667 42.1671 31.8333C45.7504 35.4167 46.0837 35.75 45.7504 37.25C45.6671 37.6667 45.3337 38.1667 44.9171 38.5C44.4171 39 44.0837 39.1667 43.3337 39.1667C42.9171 39.1667 42.3337 39.0833 42.0004 38.9167C41.3337 38.5833 35.0004 32.25 34.8337 31.5C34.6671 30.75 34.8337 29.9167 35.2504 29.25ZM29.5004 35.0833C29.8337 34.4167 30.4171 33.9167 31.0837 33.75C31.7504 33.5833 32.5837 33.6667 33.2504 34.0833C33.5837 34.3333 35.3337 36 36.8337 37.5C40.0837 40.8333 40.5837 41.4167 40.1671 42.75C39.9171 43.5 39.4171 44.0833 38.6671 44.4167C38.3337 44.5833 37.9171 44.6667 37.5837 44.6667C37.2504 44.6667 36.8337 44.5833 36.5004 44.4167C35.9171 44.0833 29.8337 38 29.4171 37.4167C29.1671 36.75 29.1671 35.75 29.5004 35.0833ZM26.4171 45.4167C26.0004 44.6667 26.0837 43.5 26.5004 42.8333C26.9171 42.1667 27.9171 41.5 28.6671 41.5C29.0004 41.5 29.5004 41.6667 29.9171 41.8333C30.8337 42.3333 34.4171 45.9167 34.6671 46.8333C35.0837 48.0833 34.5004 49.3333 33.2504 50C33.0004 50.1667 32.5837 50.25 32.1671 50.25C31.7504 50.25 31.3337 50.1667 31.0837 50C30.5004 49.6667 26.7504 46 26.4171 45.4167ZM37.4171 68.3333L25.4171 56.25L27.4171 54.25C29.2504 52.4167 29.3337 52.4167 29.5004 52.4167C29.6671 52.4167 29.7504 52.4167 35.5837 58.25L41.5837 64.25L37.4171 68.3333ZM44.1671 62.3333C44.0004 62.4167 43.9171 62.5 43.7504 62.5C43.2504 62.5 42.4171 61.6667 38.5837 57.8333L33.5004 52.75L34.5837 52.1667C35.9171 51.5 36.9171 50.0833 37.2504 48.4167L37.5004 47.25L38.5004 47.0833C39.3337 47 40.5004 46.4167 41.0837 45.8333C42.0837 44.9167 42.5837 43.9167 42.8337 42.5C43.0004 41.75 43.1671 41.6667 44.0837 41.5C46.1671 41.25 48.0837 39.3333 48.3337 37.25L48.5004 36.1667L49.5837 36C51.1671 35.8333 52.5837 34.75 53.4171 33.1667C53.7504 32.5 53.8337 32.3333 53.8337 30.9167C53.8337 29.25 53.5837 28.5833 52.6671 27.5C52.0837 26.8333 52.0837 26.6667 52.0837 26.5833C52.0837 26.4167 52.0837 26.25 55.2504 23.1667C56.4171 22.0833 58.3337 20.1667 58.6671 20C59.4171 19.6667 60.2504 19.75 60.9171 20.1667C62.0837 20.9167 62.5837 22.4167 62.0004 23.5C61.8337 23.8333 60.5837 25.1667 59.8337 25.9167C58.3337 27.5833 57.5004 28.5 57.5004 29C57.5004 29.25 57.6671 29.4167 58.0004 29.75C58.3337 30.0833 58.5837 30.25 58.7504 30.25C59.2504 30.25 60.1671 29.4167 61.6671 28C63.6671 26 64.1671 25.5 65.2504 25.5C66.5004 25.5 67.8337 26.75 67.8337 28C67.8337 29.0833 67.2504 29.75 64.4171 32.5833C61.4171 35.5833 61.1671 35.9167 61.3337 36.5833C61.4171 37.0833 62.0004 37.5 62.5004 37.5C63.0004 37.5 63.0004 37.5 66.0004 34.5C66.9171 33.6667 69.2504 31.3333 69.6671 31.1667C70.5837 30.8333 71.5837 31 72.3337 31.5833C73.0837 32.1667 73.4171 33.1667 73.2504 34.0833C73.1671 34.6667 72.6671 35.25 69.9171 38.0833C67.5837 40.4167 66.8337 41.3333 66.7504 41.5833C66.6671 41.9167 66.7504 42.25 67.0004 42.5833C67.2504 42.9167 67.5837 43.0833 68.0004 43.0833C68.4171 43.0833 68.5837 43 71.5004 40.0833C71.5004 40.0833 74.6671 36.9167 75.1671 36.75C76.1671 36.3333 77.3337 36.6667 78.1671 37.4167C78.9171 38.1667 79.0837 39.25 78.5837 40.1667C78.1671 41.1667 63.2504 55.9167 61.6671 57C59.0837 58.8333 55.7504 60.25 52.6671 60.8333C51.9171 61 50.1671 61.1667 48.9171 61.25C46.5004 61.4167 45.0837 61.75 44.1671 62.3333ZM60.5004 67.3333C59.9171 66.75 59.4171 66.4167 59.2504 66.4167C59.0837 66.3333 58.4171 66.3333 57.7504 66.5C55.5004 66.8333 53.3337 66.3333 51.2504 65.1667C50.5837 64.8333 50.2504 64.5 50.3337 64.0833C50.4171 63.6667 51.0004 63.6667 51.2504 63.6667C52.6671 63.6667 56.4171 62.6667 58.6671 61.6667C62.2504 60 64.2504 58.5 69.9171 52.8333C74.5004 48.25 74.5837 48.25 74.7504 48.25C75.0004 48.25 75.0837 48.25 75.5837 49.6667C75.7504 50.3333 76.0004 51.5 76.1671 52.3333L76.4171 53.9167L61.7504 68.5L60.5004 67.3333ZM67.5837 74.3333L63.5004 70.25L70.4171 63.3333C77.1671 56.5833 77.3337 56.5833 77.5004 56.5833C77.6671 56.5833 77.8337 56.5833 79.6671 58.4167L81.5837 60.4167L67.5837 74.3333Z" fill="#003F3B"/>
<path d="M13.0003 29.4166L16.167 29.3333L16.417 29C16.8336 28.5 16.8336 27.75 16.3336 27.25L16.0003 26.9166H12.8336C11.667 26.9166 9.58363 26.9166 9.33363 27.0833C8.75029 27.4166 8.58363 28.1666 8.91696 28.8333C9.16696 29.3333 9.50029 29.5 13.0003 29.4166Z" fill="#DACDA5"/>
<path d="M84.0007 26.9166L83.6674 27.25C83.1674 27.75 83.1674 28.5 83.584 29L83.834 29.3333L87.0007 29.4166C90.5007 29.5 90.834 29.3333 91.1674 28.8333C91.4174 28.3333 91.4174 28.0833 91.2507 27.5833C91.0007 27 90.834 26.9166 87.2507 26.9166H84.0007Z" fill="#DACDA5"/>
</g>
<defs>
<clipPath id="clip0_175_480">
<rect width="100" height="100" fill="white"/>
</clipPath>
</defs>
</svg>
