<svg width="56" height="57" viewBox="0 0 56 57" fill="none" xmlns="http://www.w3.org/2000/svg">
<g clip-path="url(#clip0_79_709)">
<path d="M5.66719 1.02984C4.53599 1.23144 3.06879 2.04903 2.12799 2.97863C1.14799 3.94743 0.369592 5.39784 0.139992 6.65784C-0.0504076 7.71624 -0.0504076 50.041 0.139992 51.0938C0.369592 52.3538 1.14799 53.8042 2.12799 54.773C3.09679 55.7418 4.54719 56.5146 5.77919 56.733C6.27759 56.8226 10.1584 56.873 17.08 56.873H27.6192V45.2306V33.5882H25.2672H22.9152V28.9458V24.3034H25.1944H27.4568L27.5352 21.341C27.6136 18.1994 27.7368 17.3202 28.336 15.8026C29.3552 13.221 31.276 11.5131 34.1152 10.673C35.0056 10.4042 35.3472 10.3818 39.816 10.3314L44.548 10.281V14.3018V18.3226H41.6584C38.4664 18.3226 38.1696 18.3842 37.6264 19.1234C37.3856 19.4538 37.3576 19.6946 37.3184 21.8954L37.2792 24.2978H40.9808H44.6824L44.6208 24.8298C44.5704 25.1378 44.4024 27.0306 44.2288 29.069C44.0496 31.0906 43.8704 32.9498 43.8368 33.1682L43.7752 33.5882H40.3536H36.9152V45.2306V56.873H43.1872C47.0792 56.873 49.756 56.8226 50.2264 56.733C51.4864 56.5034 52.9368 55.725 53.9056 54.745C54.8744 53.7762 55.6472 52.3258 55.8656 51.0938C56.056 50.0354 56.056 7.71064 55.8656 6.65784C55.384 3.94744 52.9368 1.50583 50.2264 1.01863C49.2408 0.839428 6.59679 0.850639 5.66719 1.02984Z" fill="#003F3B"/>
</g>
<defs>
<clipPath id="clip0_79_709">
<rect width="56" height="56" fill="white" transform="translate(0 0.889648)"/>
</clipPath>
</defs>
</svg>
