<svg width="40" height="40" viewBox="0 0 20 21" fill="none" xmlns="http://www.w3.org/2000/svg">
<path d="M3.61968 2.12079C3.29654 2.17871 2.87742 2.41361 2.60868 2.6807C2.32873 2.95904 2.10638 3.37576 2.04079 3.73777C1.9864 4.04185 1.9864 16.2021 2.04079 16.5046C2.10638 16.8666 2.32873 17.2833 2.60868 17.5617C2.88542 17.84 3.29974 18.0621 3.65167 18.1248C3.79404 18.1506 4.90262 18.165 6.87982 18.165H9.89042V14.8201V11.4751H9.21856H8.54669V10.1413V8.8075H9.19776H9.84403L9.86643 7.95638C9.88882 7.05377 9.92402 6.80116 10.0952 6.36514C10.3863 5.62343 10.935 5.13271 11.7461 4.89137C12.0004 4.81414 12.098 4.80771 13.3745 4.79323L14.7263 4.77875V5.93395V7.08916H13.9008C12.989 7.08916 12.9042 7.10687 12.7491 7.31924C12.6803 7.41417 12.6723 7.48336 12.6611 8.11566L12.6499 8.80589H13.7073H14.7646L14.7471 8.95874C14.7327 9.04723 14.6847 9.59105 14.6351 10.1767C14.5839 10.7575 14.5327 11.2917 14.5231 11.3544L14.5055 11.4751H13.5281H12.5459V14.8201V18.165H14.3375C15.4493 18.165 16.214 18.1506 16.3483 18.1248C16.7083 18.0588 17.1226 17.8352 17.3993 17.5536C17.6761 17.2753 17.8968 16.8586 17.9592 16.5046C18.0136 16.2005 18.0136 4.04025 17.9592 3.73777C17.8216 2.95904 17.1226 2.25755 16.3483 2.11757C16.0668 2.06609 3.88522 2.06931 3.61968 2.12079Z" fill="white"/>
</svg>
