<svg width="56" height="57" viewBox="0 0 56 57" fill="none" xmlns="http://www.w3.org/2000/svg">
<g clip-path="url(#clip0_79_726)">
<path d="M55.832 6.65798C55.328 3.96998 52.92 1.50598 50.176 1.00198C49.168 0.833977 6.55199 0.833977 5.59999 1.00198C4.47999 1.22598 3.02399 2.00998 2.07199 2.96198C1.17599 3.96998 0.391992 5.36998 0.167992 6.65798C-7.81566e-06 7.72198 -7.81566e-06 50.058 0.167992 51.122C0.391992 52.354 1.17599 53.81 2.12799 54.818C3.07999 55.77 4.53599 56.554 5.76799 56.778C6.27199 56.89 10.136 56.89 17.08 56.89H27.608H36.904H43.176C47.096 56.89 49.728 56.834 50.232 56.778C51.464 56.554 52.92 55.77 53.928 54.818C54.88 53.866 55.664 52.41 55.888 51.178C56.056 50.058 56.056 7.72198 55.832 6.65798ZM44.744 28.106C44.688 30.85 44.632 31.466 44.184 33.146C43.848 34.322 43.568 35.106 43.008 36.282C42.168 38.074 41.216 39.306 39.816 40.762C38.36 42.218 37.128 43.114 35.336 43.954C33.712 44.738 32.256 45.242 30.464 45.522C29.176 45.746 26.768 45.746 25.48 45.522C23.688 45.242 22.232 44.738 20.608 43.954C18.816 43.114 17.584 42.162 16.128 40.762C14.672 39.306 13.776 38.074 12.936 36.282C12.152 34.658 11.648 33.202 11.368 31.41C11.144 30.122 11.144 27.714 11.368 26.426C11.536 25.362 11.872 24.018 12.208 23.122C12.488 22.338 13.328 20.658 13.72 20.042C14.672 18.53 16.352 16.682 17.64 15.674C20.272 13.658 23.24 12.482 26.488 12.146C27.216 12.09 29.456 12.146 30.24 12.258C32.984 12.65 35.56 13.658 37.688 15.226L38.248 15.618L37.912 16.01C37.744 16.234 36.848 17.354 35.952 18.53C35.056 19.706 34.328 20.658 34.328 20.658C34.328 20.658 34.048 20.49 33.768 20.266C32.704 19.538 31.416 18.978 30.072 18.698C29.12 18.474 27.328 18.474 26.264 18.642C21.896 19.37 18.48 22.786 17.752 27.154C17.584 28.218 17.584 29.618 17.752 30.626C18.48 34.994 21.896 38.41 26.264 39.138C26.992 39.25 27.272 39.25 28.28 39.25C30.016 39.194 30.968 38.97 32.536 38.242C33.824 37.626 34.832 36.842 35.784 35.778C36.568 34.938 37.296 33.706 37.688 32.642L37.856 32.138H32.928H28V28.89V25.698H36.4H44.8L44.744 28.106Z" fill="#003F3B"/>
</g>
<defs>
<clipPath id="clip0_79_726">
<rect width="56" height="56" fill="white" transform="translate(0 0.889648)"/>
</clipPath>
</defs>
</svg>
