<svg xmlns="http://www.w3.org/2000/svg" width="120" height="120" viewBox="0 0 120 120"><g id="Layer_2" data-name="Layer 2"><g id="Layer_1-2" data-name="Layer 1"><polygon points="16.56 68.12 29.45 66.69 33.92 103.2 12.3 108.21 16.56 68.12" fill="#dacda5"/><circle cx="70.49" cy="39.9" r="13.06" fill="#dacda5"/><rect width="120" height="120" fill="none"/><path d="M58.19,15.22C48,19.72,46.37,20.52,46.11,21s-.25,2.52-.21,13.58c.08,14.47,0,13.84,1.43,16.81,2,4.31,6.7,9,13.09,13.2,4.13,2.7,9,5.22,10.13,5.22.76,0,5.81-2.6,9-4.69C88,59.73,93,54.3,94.54,48.84c.37-1.37.39-2,.39-14.64V21l-.43-.39C93.93,20.09,71,10,70.41,10,70.18,10,64.68,12.37,58.19,15.22ZM81.34,17.9,92,22.59V34.53c0,11.32,0,12-.39,13.47-1.46,5.75-8.87,12.53-19.51,17.87l-1.62.82-2.58-1.35c-6.59-3.42-12.39-7.78-15.5-11.65a18,18,0,0,1-3.19-6.14c-.13-.68-.21-5.16-.21-13v-12L59.7,17.86c5.88-2.6,10.77-4.71,10.85-4.69S75.5,15.32,81.34,17.9Z" fill="#003f3b"/><path d="M67.66,25.31A14.71,14.71,0,0,0,57,33.54a14.21,14.21,0,0,0-.49,11.63,14.92,14.92,0,0,0,8.33,8.54,15.48,15.48,0,0,0,11.4-.12,16.48,16.48,0,0,0,6.64-5.69,14.93,14.93,0,0,0-6.35-21.48A15.63,15.63,0,0,0,67.66,25.31Zm5.47,3.14a12,12,0,0,1,8.44,7.86A9.18,9.18,0,0,1,82.08,40a8.53,8.53,0,0,1-.51,3.58,11.73,11.73,0,0,1-19.5,4.73A11.08,11.08,0,0,1,58.57,40a11.14,11.14,0,0,1,3.51-8.35,11.8,11.8,0,0,1,5.56-3.21A14.9,14.9,0,0,1,73.13,28.45Z" fill="#003f3b"/><path d="M72,39.19l-4.11,4-1.58-1.54c-1.39-1.35-1.68-1.54-2.31-1.54a1.36,1.36,0,0,0-1.48,1.44c0,.61.23.92,2.15,2.8,2.24,2.19,2.89,2.64,3.61,2.42s9.84-9.21,10-9.85a1.39,1.39,0,0,0-1.41-1.66C76.08,35.18,76,35.26,72,39.19Z" fill="#003f3b"/><path d="M22.69,65.91c-5.72.84-6.49,1-6.88,1.39s-.58,1.7-2.87,21c-2.27,18.89-2.42,20.53-2.17,21.06a1.49,1.49,0,0,0,.82.68c.35.1,4.22-.66,11.57-2.27,8.86-1.91,11.17-2.48,11.54-2.81s.45-.49.35-2.31l-.12-1.89,1.51.68c.82.37,2.6,1.27,4,2,4.43,2.35,5.74,3,7.52,3.54a27.23,27.23,0,0,0,19.75-1c.78-.35,4.08-2.35,7.35-4.44,25.47-16.25,31.39-20.1,32.17-20.86A7.34,7.34,0,0,0,108.51,72a7.43,7.43,0,0,0-9.07-3.7c-.49.18-5.57,3.15-11.34,6.61S77.63,81.12,77.57,81a7.56,7.56,0,0,0-2.11-2.44c-1.92-1.35-2.06-1.37-9.27-1.51-6-.13-6.65-.17-7.92-.58A20.16,20.16,0,0,1,53.35,74a27.18,27.18,0,0,0-5.81-2.83C44.67,70.17,43.1,70,37.16,70H31.82l-.11-1.14c-.32-2.85-.38-3-.83-3.5a1.41,1.41,0,0,0-1.09-.43C29.44,65,26.25,65.38,22.69,65.91Zm6.12,4.59c.73,6.75,3.31,32,3.27,32.1s-18.1,4-18.18,3.91,4.24-36.59,4.38-36.75,9.73-1.7,10.08-1.64A7.57,7.57,0,0,1,28.81,70.5Zm75.13,1a4.32,4.32,0,0,1,1.84,5.81,4.36,4.36,0,0,1-1.92,2c-2.56,1.7-36,23-36.65,23.36a23.89,23.89,0,0,1-10.77,2.48,21.74,21.74,0,0,1-11-2.66c-3.38-1.78-9.21-4.69-10.07-5s-.82-.37-.92-1.15c-.27-1.94-2.32-23.07-2.25-23.15s2.49-.1,5.44-.12c5.18,0,5.45,0,7.29.47a27.32,27.32,0,0,1,7.25,3.33,22.22,22.22,0,0,0,6.14,2.71c1.33.37,2.25.43,7.86.53,7.08.14,7,.12,8.19,1.53a3.69,3.69,0,0,1-1.21,5.7c-.82.41-1.08.41-11.07.41H51.9l-.47.49a1.47,1.47,0,0,0,0,2.17l.49.49,10.5-.06,10.51-.06,1.18-.46a7.13,7.13,0,0,0,4.14-5.22l.12-.88L89,77.87c5.87-3.5,10.93-6.47,11.26-6.62A4.48,4.48,0,0,1,103.94,71.52Z" fill="#003f3b"/></g></g></svg>