<svg width="56" height="57" viewBox="0 0 56 57" fill="none" xmlns="http://www.w3.org/2000/svg">
<g clip-path="url(#clip0_79_728)">
<path d="M5.66719 1.02978C4.53599 1.23138 3.06879 2.04897 2.12799 2.97857C1.14799 3.94736 0.369592 5.39778 0.139992 6.65778C-0.0504076 7.71618 -0.0504076 50.0522 0.139992 51.1106C0.369592 52.3706 1.14799 53.821 2.12799 54.7898C3.09679 55.7586 4.54719 56.5314 5.77919 56.7498C6.83759 56.9402 49.1624 56.9402 50.2152 56.7498C51.4752 56.5202 52.9256 55.7418 53.8944 54.7618C54.8632 53.793 55.636 52.3426 55.8544 51.1106C56.0448 50.0522 56.0448 7.71618 55.8544 6.65778C55.3728 3.94738 52.9256 1.50017 50.2152 1.01857C49.2408 0.839367 6.59679 0.850578 5.66719 1.02978ZM30.24 18.3282C33.6392 18.6698 36.4112 19.8682 38.9088 22.0858L39.76 22.8362L42.7616 22.8978L45.752 22.9594L45.7128 23.2786C45.6344 23.889 45.0128 24.589 44.212 24.9978L43.4336 25.3898L43.7416 25.821C44.2736 26.5826 45.1416 28.4026 45.4496 29.3994C45.9816 31.1074 45.808 33.1682 44.9792 34.977C43.9712 37.1666 42.2408 38.617 39.8384 39.2666C38.8192 39.5466 36.6296 39.5746 35.6384 39.3282C34.0592 38.9362 32.1496 37.8386 31.0072 36.657L30.3688 36.0186L29.2488 37.6986C28.6384 38.617 28.0784 39.3786 28 39.3786C27.9216 39.3786 27.3616 38.617 26.7512 37.6986L25.6312 36.0074L25.06 36.5954C23.912 37.777 21.9408 38.953 20.4792 39.2946C17.5672 40.0058 14.4592 39.1658 12.46 37.1442C10.5896 35.2234 9.76079 31.9138 10.5504 29.405C10.8584 28.4138 11.7208 26.577 12.2584 25.8266L12.5664 25.3954L11.788 25.0034C10.9872 24.5946 10.36 23.8946 10.2872 23.2842L10.248 22.965L13.2384 22.9258L16.2288 22.8978L16.7384 22.3994C20.0984 19.1682 24.7184 17.7682 30.24 18.3282Z" fill="#003F3B"/>
<path d="M25.4688 20.5459C23.52 20.9771 21.6104 21.8171 20.1768 22.9147L19.4376 23.4747L20.1264 23.5643C21.6552 23.7547 22.9488 24.4547 24.4048 25.8547C26.1856 27.5851 27.5856 30.2451 27.8264 32.3955C27.916 33.1067 28.1344 33.3475 28.1344 32.7259C28.1344 32.1379 28.6328 30.4243 29.0864 29.4275C29.7248 28.0387 30.5872 26.8291 31.696 25.7763C33.0848 24.4547 34.4456 23.7379 35.9352 23.5475L36.5848 23.4691L35.8456 22.9203C34.3448 21.7723 32.3344 20.8819 30.4472 20.5291C29.26 20.3051 26.5496 20.3163 25.4688 20.5459Z" fill="#003F3B"/>
<path d="M17.8807 26.168C14.7615 27.288 13.2887 30.5584 14.6215 33.4088C16.2231 36.8472 20.7199 37.6368 23.2735 34.9208C25.7823 32.272 25.0543 28.1 21.7951 26.4928C20.9271 26.0728 20.7143 26.0112 19.6671 25.9832C18.8103 25.9552 18.3679 26.0056 17.8807 26.168ZM20.1991 29.276C21.1791 29.6456 21.7783 30.788 21.5095 31.7848C21.0111 33.6664 18.3511 33.896 17.5503 32.1432C17.2423 31.4712 17.2423 30.9952 17.5783 30.3232C18.0375 29.3656 19.2079 28.8952 20.1991 29.276Z" fill="#003F3B"/>
<path d="M34.9327 26.1682C32.9223 26.8962 31.6623 28.3578 31.2815 30.4074C30.9735 32.0258 31.6231 33.9074 32.8999 35.1058C35.5487 37.6146 39.8103 36.7746 41.3727 33.4258C42.5935 30.805 41.4119 27.6858 38.7127 26.4258C37.9847 26.0954 37.6823 26.017 36.7135 25.9946C35.8623 25.9554 35.4087 26.0058 34.9327 26.1682ZM37.6207 29.4554C38.2087 29.797 38.6903 30.6034 38.6903 31.253C38.6791 31.813 38.2591 32.625 37.8111 32.961C36.9823 33.549 35.7615 33.4594 35.0615 32.7706C34.2495 31.9586 34.1823 30.7714 34.9215 29.9314C35.6607 29.0914 36.6799 28.9066 37.6207 29.4554Z" fill="#003F3B"/>
</g>
<defs>
<clipPath id="clip0_79_728">
<rect width="56" height="56" fill="white" transform="translate(0 0.889648)"/>
</clipPath>
</defs>
</svg>
