<svg width="40" height="40" viewBox="0 0 20 21" fill="none" xmlns="http://www.w3.org/2000/svg">
<g clip-path="url(#clip0_83_227)">
<path d="M3.61927 2.12183C3.29607 2.17974 2.87687 2.41457 2.60807 2.68157C2.32807 2.95983 2.10567 3.37642 2.04007 3.73833C1.98567 4.04232 1.98567 16.199 2.04007 16.5014C2.10567 16.8633 2.32807 17.2799 2.60807 17.5581C2.88487 17.8364 3.29927 18.0584 3.65127 18.1211C3.95367 18.1758 16.0465 18.1758 16.3473 18.1211C16.7073 18.0551 17.1217 17.8316 17.3985 17.5501C17.6753 17.2718 17.8961 16.8552 17.9585 16.5014C18.0129 16.1974 18.0129 4.04071 17.9585 3.73833C17.8209 2.95983 17.1217 2.25855 16.3473 2.11861C16.0689 2.06714 3.88487 2.07036 3.61927 2.12183ZM11.3089 4.06967C13.1457 4.43157 14.5089 5.70707 14.8177 7.35895C14.9009 7.80449 14.8753 8.72935 14.7665 9.28909C14.3889 11.1822 13.2545 12.4626 11.6545 12.7907C11.3569 12.8534 10.6801 12.8534 10.4369 12.7907C9.98567 12.6781 9.50247 12.3918 9.31047 12.1216C9.22727 12.0042 9.20487 11.9897 9.18727 12.0444C9.17607 12.0814 9.05287 12.5446 8.91527 13.0786C8.77287 13.6126 8.62407 14.1386 8.58087 14.2479C8.33287 14.9026 7.46407 16.2585 7.29447 16.2585C7.26567 16.2585 7.23687 16.2295 7.22567 16.1926C7.18567 16.0607 7.13447 15.5637 7.11367 15.1069C7.07047 14.2914 7.11367 14.0179 7.66567 11.7371L8.16327 9.67994L8.08007 9.4242C7.80807 8.56529 7.94887 7.66616 8.44327 7.1402C8.54887 7.02761 8.72007 6.89571 8.83527 6.84102C9.00967 6.75256 9.08327 6.73808 9.34727 6.73808C9.59527 6.73808 9.68487 6.75578 9.80967 6.81851C10.1297 6.99061 10.3073 7.34126 10.3009 7.80127C10.2977 8.11975 10.2177 8.46717 9.92967 9.38721C9.80967 9.77806 9.68967 10.2091 9.66727 10.341C9.58727 10.7978 9.74407 11.1678 10.1249 11.4235C10.3617 11.5843 10.5425 11.6278 10.9281 11.6101C11.2049 11.5988 11.2961 11.5779 11.5025 11.475C12.4625 11.0101 13.1025 9.60274 13.1025 7.94442C13.1025 7.54231 13.0849 7.3702 13.0257 7.15467C12.7057 5.95155 11.7233 5.25831 10.2737 5.19558C9.31367 5.15537 8.51687 5.39342 7.81607 5.9226C6.99847 6.54024 6.54407 7.49084 6.54407 8.56529C6.54407 9.15076 6.66727 9.51588 6.99847 9.93568C7.15527 10.1335 7.15847 10.1995 7.02727 10.6659C6.87847 11.1887 6.75847 11.2176 6.23047 10.8782C5.70247 10.5389 5.35847 9.97107 5.19367 9.16685C5.09927 8.71005 5.11687 7.90582 5.23367 7.47475C5.43047 6.72843 5.76167 6.13652 6.29927 5.57035C6.87047 4.96396 7.55367 4.5329 8.36007 4.26911C8.68327 4.16296 9.31687 4.03589 9.67207 3.9989C10.0113 3.97155 11.0065 4.01176 11.3089 4.06967Z" fill="white"/>
</g>
<defs>
<clipPath id="clip0_83_227">
<rect width="16" height="16.0845" fill="white" transform="translate(2 2.08154)"/>
</clipPath>
</defs>
</svg>
