<svg xmlns="http://www.w3.org/2000/svg" width="120" height="120" viewBox="0 0 120 120"><g id="Layer_2" data-name="Layer 2"><g id="Layer_1-2" data-name="Layer 1"><polygon points="55.81 65.85 60.8 55.44 68.09 49.42 77.71 48.05 88.07 48.05 85.99 55.76 82.94 66.43 76.76 73.25 68.73 76.06 59.09 74.7 55.81 65.85" fill="#dacda5"/><polygon points="32.37 44.74 35.49 52.59 38.3 60.32 44 63.28 52.63 63.28 53.23 57.33 52.75 50.43 49.15 46.54 41.24 43.54 32.37 44.74" fill="#dacda5"/><rect width="120" height="120" fill="none"/><path d="M43.91,94.71A38.19,38.19,0,0,1,23.85,47.55,50,50,0,0,1,28.77,38a48.72,48.72,0,0,1,7-7.5,38.91,38.91,0,0,1,21-8.52c2.19-.16,2.22-.14,2.34-.08l.23.11v.26c0,.19,0,.26-2.62,2.36a20,20,0,0,0-2.7,2.48,1.38,1.38,0,0,0,.37,1.59A1.52,1.52,0,0,0,56.2,29c.52-.3,9-7.11,9.42-7.59a1.71,1.71,0,0,0,.25-1c0-.6-.37-1.13-3.6-5.16-2.37-2.94-3.84-4.7-4-4.87a1.6,1.6,0,0,0-1.73-.23,1.41,1.41,0,0,0-.79,1.36c0,.54.07.68,2.62,3.86l2.45,3.06-3.63.31A40.31,40.31,0,0,0,42,22.85a41.29,41.29,0,0,0-21.9,48A41,41,0,0,0,41.56,97a13.83,13.83,0,0,0,2.87,1.18,2.07,2.07,0,0,0,.94-.45,1,1,0,0,0,.5-1C45.87,95.89,45.59,95.48,43.91,94.71Z" fill="#003f3b"/><path d="M101.13,55.54A41.58,41.58,0,0,0,77.7,22.61c-2.13-1-2.53-1-3.2-.77a2.13,2.13,0,0,0-.84,1.39c0,.47.22,1.05,1.87,1.81A38.71,38.71,0,0,1,97.9,55a47.72,47.72,0,0,1-.23,11.71A38.41,38.41,0,0,1,66.8,97.63c-.06,0-5.69.9-6,.28l-.13-.25.19-.22c.06-.06.24-.21,1-.87l1.46-1.17a24.61,24.61,0,0,0,2.54-2.24,1.38,1.38,0,0,0-.28-1.75,1.42,1.42,0,0,0-1-.49,2.47,2.47,0,0,0-1.43.61c-3.09,2.38-8.54,6.91-8.88,7.35a1.83,1.83,0,0,0-.18.74c0,.59.15.81,4.1,5.69,2.28,2.84,3.69,4.5,4.14,4.63a1.51,1.51,0,0,0,1.79-.85c.28-.58.27-.61,0-1.12a27.87,27.87,0,0,0-2.31-3.14c-2.27-2.8-2.15-3-2-3.2s.21-.34,2.11-.34c7.39,0,16.53-3.38,23.31-8.56A58.56,58.56,0,0,0,92.2,86a42.68,42.68,0,0,0,8.93-21.25A54.12,54.12,0,0,0,101.13,55.54Z" fill="#003f3b"/><path d="M56.7,84.56a44,44,0,0,1,2.8-8c2.27.28,6.39.8,7.33.85,6.58.61,12.27-2,15.62-7,1.3-2,2-4,2.91-7.77a33.39,33.39,0,0,1,5-12.3c1.58-2.56,1.51-3,.92-3.71-.27-.32-.46-.44-1.81-.61a64.87,64.87,0,0,0-15.59.12,29.54,29.54,0,0,0-10.07,3.64,18.08,18.08,0,0,0-7.54,11.16l-.41,2.21-1.77-2.33.53-1.42A9.49,9.49,0,0,0,55,55.49c0-2.49-.05-2.86-.51-4a13.13,13.13,0,0,0-3.17-4.92c-2.3-2.3-6.38-3.86-11.19-4.28a26.15,26.15,0,0,0-6,0h0c-3.14.21-3.49.32-3.86.8s-.57,1.16.78,3.38a21.23,21.23,0,0,1,3,7.44c.84,3.33,1.47,4.76,2.81,6.41A12.62,12.62,0,0,0,47.42,65l1,0c2-.09,3.6-.25,4.52-.35a29,29,0,0,1,3.68,7.86l.5,1.6-.74,1.7c-1.51,3.43-2.94,8.15-2.94,9.72a1.33,1.33,0,0,0,1.47,1.41C55.8,86.86,56.24,86.64,56.7,84.56ZM48.49,61.87h-1a10.12,10.12,0,0,1-8.35-3.74,9.45,9.45,0,0,1-1.93-4.69,24.79,24.79,0,0,0-2-6c-.78-1.47-.58-1.75-.5-1.85.57-.53,6.33-.1,7.58.14a24.16,24.16,0,0,1,3.26.86,9.41,9.41,0,0,1,6.46,9V58l-3.18-3.15c-4-4-4.26-4.09-5-4.09a1.32,1.32,0,0,0-1.46,1.44c0,.61.11.78,4,4.64,1.82,1.83,3.33,3.46,4.59,5C50.11,61.86,49.18,61.87,48.49,61.87Zm12.21-4.1c2.22-4.45,6.08-7,12.9-8.45,2-.42,2.88-.48,7.54-.5,5.39,0,5.57.13,5.66.2l.08.08c.12.16.27.36-.91,2.38a35.78,35.78,0,0,0-3.66,10.38c-.23,1.14-.58,2.54-.75,3.12a14.67,14.67,0,0,1-5.42,7.35,14.36,14.36,0,0,1-9.36,1.88c-1-.14-1.69-.22-2.22-.25-1.13-.13-2.49-.3-3.58-.46a41,41,0,0,1,2.8-4.66c1.13-1.61,1.28-1.73,2.71-2.17a18.76,18.76,0,0,1,7-.63c2.79.29,3,.23,3.35-.2a1.21,1.21,0,0,0,.41-1,1.41,1.41,0,0,0-1-1.53,24.56,24.56,0,0,0-5.55-.49L68.5,63l2.12-1.9a39.18,39.18,0,0,1,7-4.87c3-1.66,3-2.12,2.46-3.07a1.34,1.34,0,0,0-1.31-.82,17.94,17.94,0,0,0-5,2.53l-2.31,1.51V54.9a1.47,1.47,0,0,0-1.24-1.48,1.45,1.45,0,0,0-1.68.92c-.11.27-.55,1.66-1,3.22l-.85,2.81-1.73,2c-.94,1-2.37,2.81-3.19,3.95-1.08,1.47-1.47,2-2,1.81s-.58-.83-.66-2.93A13.36,13.36,0,0,1,60.7,57.77Z" fill="#003f3b"/></g></g></svg>