<svg xmlns="http://www.w3.org/2000/svg" width="120" height="120" viewBox="0 0 120 120"><g id="Layer_2" data-name="Layer 2"><g id="Layer_1-2" data-name="Layer 1"><polygon points="36.94 74.57 25.69 95.11 39.1 93.49 45.07 107.05 59.98 82.53 74.47 107.05 80.54 93.27 95.62 95.98 82.93 74.57 72.56 80.12 54.55 81.88 36.94 74.57" fill="#dacda5"/><polygon points="43.88 41.75 51.33 49.83 49.86 60.74 60.01 55.81 69.91 60.74 68.65 49.72 76.31 41.75 65.72 39.25 60.01 29.89 54.55 39.25 43.88 41.75" fill="#dacda5"/><path d="M58.66,80.49h0Z" fill="none"/><path d="M55.43,83.42a39.92,39.92,0,0,1-15.7-5.71h0c-1.8-1.19-1.81-1.19-2-1.19-.33,0-.33,0-5,8.34C31.94,86.23,28.08,93,28,93.42l-.09.26.19.18c.21.22.21.22,6.18-1,5.42-1.15,5.62-1.16,6.13-.93s.71.58,3.11,7.44c1.59,4.52,1.63,4.52,2,4.52s.3,0,5.86-9.67c2-3.52,5.47-9.57,5.65-10l0-.2-.11-.16C56.84,83.74,56.72,83.57,55.43,83.42Z" fill="none"/><path d="M82.71,76.85l-.09-.09c-.2-.15-.38-.29-2.51,1.06a39.14,39.14,0,0,1-15.53,5.6c-1.29.15-1.41.32-1.49.44l-.13.21.08.21c.17.4,4.72,8.33,5.63,9.92,5.56,9.67,5.56,9.67,5.87,9.67s.4,0,2-4.52c2.4-6.86,2.52-7.14,3.11-7.43s.71-.23,6.19.9C91.75,94.05,91.75,94,92,93.87l.16-.12v-.2c0-.15,0-.19-4.66-8.41C85.29,81.32,82.81,77,82.71,76.85Z" fill="none"/><path d="M61.25,80.5h0Z" fill="none"/><path d="M56,80.28l-.39,0Z" fill="none"/><path d="M67.23,79.75c-.5.1-1,.2-1.51.28C66.23,80,66.73,79.85,67.23,79.75Z" fill="none"/><path d="M77.71,75.59a34.32,34.32,0,0,1-10.3,4.12A34,34,0,0,0,77.71,75.59Z" fill="none"/><path d="M63.08,80.38l-.23,0Z" fill="none"/><path d="M65.2,80.12c-.37.06-.74.1-1.11.15Z" fill="none"/><path d="M60,80.53l.61,0c-.65,0-1.31,0-2,0C59.1,80.51,59.55,80.53,60,80.53Z" fill="none"/><path d="M79.25,74.61c-.5.34-1,.66-1.52,1C78.24,75.27,78.75,75,79.25,74.61Z" fill="none"/><path d="M88,26.37a41.67,41.67,0,0,1,4.7,9.39A34.66,34.66,0,0,1,88.51,65.3,34.29,34.29,0,0,0,69.3,13.19c.38.15.82.31,1.3.47A34.09,34.09,0,0,1,88,26.37Z" fill="none"/><path d="M25.69,46.22A34.31,34.31,0,0,0,53.45,79.88,34.24,34.24,0,0,1,27.36,35.76a41.89,41.89,0,0,1,4.74-9.49A42.24,42.24,0,0,1,40,18.34a43.38,43.38,0,0,1,9.59-4.78l1.53-.5A34.34,34.34,0,0,0,25.69,46.22Z" fill="none"/><path d="M55.43,83.42a39.92,39.92,0,0,1-15.7-5.71h0c-1.8-1.19-1.81-1.19-2-1.19-.33,0-.33,0-5,8.34C31.94,86.23,28.08,93,28,93.42l-.09.26.19.18c.21.22.21.22,6.18-1,5.42-1.15,5.62-1.16,6.13-.93s.71.58,3.11,7.44c1.59,4.52,1.63,4.52,2,4.52s.3,0,5.86-9.67c2-3.52,5.47-9.57,5.65-10l0-.2-.11-.16C56.84,83.74,56.72,83.57,55.43,83.42Z" fill="none"/><path d="M82.71,76.85l-.09-.09c-.2-.15-.38-.29-2.51,1.06a39.14,39.14,0,0,1-15.53,5.6c-1.29.15-1.41.32-1.49.44l-.13.21.08.21c.17.4,4.72,8.33,5.63,9.92,5.56,9.67,5.56,9.67,5.87,9.67s.4,0,2-4.52c2.4-6.86,2.52-7.14,3.11-7.43s.71-.23,6.19.9C91.75,94.05,91.75,94,92,93.87l.16-.12v-.2c0-.15,0-.19-4.66-8.41C85.29,81.32,82.81,77,82.71,76.85Z" fill="none"/><path d="M55.56,80.23c-.68-.09-1.35-.2-2-.33C54.2,80,54.88,80.14,55.56,80.23Z" fill="none"/><path d="M79.31,74.57a34.3,34.3,0,0,0,5.62-4.79A34.16,34.16,0,0,1,79.31,74.57Z" fill="none"/><path d="M85.1,74.39c0-.13,0-.33,1.14-1.44a37.46,37.46,0,0,0-10-60.4A30.43,30.43,0,0,0,68.89,10a36.68,36.68,0,0,0-18,0,13.7,13.7,0,0,0-2.84.75h0A37.43,37.43,0,0,0,23.7,55.31,36.41,36.41,0,0,0,33,72.11c1.93,2,1.93,2.14,1.93,2.3s0,.23-6.13,11c-3.39,6-5.9,10.63-6,11.08a1.74,1.74,0,0,0,.95,1.36c.47.19,1.65,0,7.44-1.22,7.29-1.5,7.32-1.47,7.52-1.26.05,0,.17.17,2.47,6.72l.15.4c2.42,6.85,2.47,7,3,7.23a1.28,1.28,0,0,0,1.79-.27c.33-.37,3.3-5.37,7-12C59.67,85.89,59.67,85.89,60,85.89s.33,0,6.94,11.63c3.63,6.4,6.71,11.61,7,12a1.28,1.28,0,0,0,1.75.27c.52-.27.58-.4,3-7.25l.14-.41c2.31-6.54,2.42-6.66,2.47-6.71.21-.21.25-.23,7.52,1.26,5.8,1.2,7,1.42,7.45,1.22a1.75,1.75,0,0,0,.93-1.46c-.12-.36-2.58-4.91-6-11C85.1,74.67,85.1,74.5,85.1,74.39ZM69.3,13.19c.38.15.82.31,1.3.47A34.09,34.09,0,0,1,88,26.37a41.67,41.67,0,0,1,4.7,9.39,34.88,34.88,0,0,1-1.28,24.29l-.14.33c-.19.42-.39.82-.59,1.23s-.35.69-.54,1-.29.53-.44.79c-.37.64-.75,1.26-1.16,1.87a.43.43,0,0,1,0,.07c-.33.49-.67,1-1,1.43l-.14.17c-.33.44-.66.86-1,1.27l-.16.19c-.36.43-.74.84-1.12,1.25l-.09.1a34.3,34.3,0,0,1-5.62,4.79l-.06,0c-.5.34-1,.66-1.52,1h0a34.32,34.32,0,0,1-10.3,4.12l-.18,0c-.5.1-1,.2-1.51.28l-.52.09c-.37.06-.74.1-1.11.15l-1,.11-.23,0c-.53,0-1.06.08-1.6.1H60q-.64,0-1.29,0h-.39c-.78,0-1.55-.11-2.32-.2l-.39,0c-.68-.09-1.35-.2-2-.33l-.08,0q-.95-.18-1.89-.42h0A34.23,34.23,0,0,1,27.36,35.76a41.89,41.89,0,0,1,4.74-9.49A42.24,42.24,0,0,1,40,18.34a43.38,43.38,0,0,1,9.59-4.78l1.53-.5a34.25,34.25,0,0,1,18.15.13ZM57,84.22c-.18.41-3.63,6.46-5.65,10-5.56,9.67-5.56,9.67-5.86,9.67s-.41,0-2-4.52c-2.4-6.86-2.51-7.14-3.11-7.44s-.71-.22-6.13.93c-6,1.24-6,1.24-6.18,1l-.19-.18.09-.26c.12-.38,4-7.19,4.75-8.56,4.72-8.34,4.72-8.34,5-8.34.16,0,.17,0,2,1.19h0a39.92,39.92,0,0,0,15.7,5.71c1.29.15,1.41.32,1.49.44L57,84Zm35.13,9.53-.16.12c-.21.17-.21.18-6.13-1.05-5.48-1.13-5.68-1.14-6.19-.9s-.71.57-3.11,7.43c-1.59,4.52-1.63,4.52-2,4.52s-.31,0-5.87-9.67c-.91-1.59-5.46-9.52-5.63-9.92L63,84.07l.13-.21c.08-.12.2-.29,1.49-.44a39.14,39.14,0,0,0,15.53-5.6c2.13-1.35,2.31-1.21,2.51-1.06l.09.09c.1.13,2.58,4.47,4.75,8.29,4.66,8.22,4.66,8.26,4.66,8.41Z" fill="#003f3b"/><path d="M65.72,80l-.52.09Z"/><path d="M53.53,79.9l-.08,0Z"/><path d="M63.6,80.34l.49-.07-1,.11Z"/><path d="M62.85,80.4c-.53,0-1.06.08-1.6.1C61.78,80.48,62.32,80.44,62.85,80.4Z"/><path d="M79.31,74.57l-.06,0Z"/><path d="M67.41,79.71l-.18,0Z"/><path d="M77.73,75.58h0Z"/><path d="M60,80.53l.61,0c-.65,0-1.31,0-2,0C59.1,80.51,59.55,80.53,60,80.53Z"/><path d="M58.27,80.48c-.78,0-1.55-.11-2.32-.2C56.72,80.37,57.49,80.45,58.27,80.48Z"/><path d="M88.91,51.94a22.45,22.45,0,0,0,.45-5.69,22.45,22.45,0,0,0-.45-5.69A29.64,29.64,0,0,0,65.8,17.37a38.61,38.61,0,0,0-6.72-.53,20.21,20.21,0,0,0-2.6.13h0A29.75,29.75,0,0,0,31.1,40.56a34,34,0,0,0,0,11.38A29.67,29.67,0,0,0,54.31,75.15a34,34,0,0,0,11.39,0A29.42,29.42,0,0,0,88.91,51.94ZM60,72.49a26.38,26.38,0,0,1-5-.39,26.06,26.06,0,0,1-13.6-7.4,25.74,25.74,0,0,1-7.21-13.38,32.4,32.4,0,0,1,0-10.12,25.76,25.76,0,0,1,7.21-13.41,26.42,26.42,0,0,1,15.21-7.67,34.88,34.88,0,0,1,8.9.39,25.57,25.57,0,0,1,13,7.1,25.81,25.81,0,0,1,7.39,13.57,32.58,32.58,0,0,1,0,10.1,26,26,0,0,1-7.39,13.61A25.53,25.53,0,0,1,65.08,72.1,27.64,27.64,0,0,1,60,72.49Z" fill="#003f3b"/><path d="M77.71,39.87c-.19-.06-2.46-.46-5.22-.85s-5.14-.78-5.45-.85c-.72-.14-1-.67-3.4-5.46-1.43-2.83-2.55-5-2.9-5.17a1.65,1.65,0,0,0-1.5,0,41.36,41.36,0,0,0-2.86,5.18c-2.69,5.37-2.69,5.37-3,5.37-2.21.23-10.86,1.75-11.43,2a2.1,2.1,0,0,0-.52,1.51A57.53,57.53,0,0,0,45.5,46l4.22,4.24-1,5.68A58.53,58.53,0,0,0,48,61.75a1.91,1.91,0,0,0,.49.75c.69.65,1.14.57,6.31-2.14,4.9-2.58,5.17-2.58,5.26-2.58a47.61,47.61,0,0,1,5.24,2.58c5.31,2.81,5.6,2.78,6.29,2.14a1.89,1.89,0,0,0,.49-.77c0-.26-.25-2.51-.8-5.85l-1-5.67,4.28-4.28c3.5-3.5,4-4,4-4.52A1.71,1.71,0,0,0,77.71,39.87ZM70.11,46a27.61,27.61,0,0,0-3,3.23c0,.19.19,2,.58,4.3.7,4.11.63,4.21.49,4.37L68,58h-.2c-.12,0-.17,0-3.94-1.94C61.68,55,60.36,54.37,60,54.26c-.36.12-1.8.77-3.88,1.83C52.39,58,52.3,58,52.19,58H52l-.13-.15c-.14-.16-.22-.26.48-4.37a33.79,33.79,0,0,0,.56-4.39,32.7,32.7,0,0,0-3-3.18c-2.69-2.6-3-2.88-2.83-3.34s.44-.38.62-.42l3-.49,1-.16a25.54,25.54,0,0,0,3.8-.75A28.53,28.53,0,0,0,57.7,37c1.92-3.92,2-3.92,2.31-3.92s.39,0,2.31,3.92a25.16,25.16,0,0,0,2.17,3.82,32.38,32.38,0,0,0,3.85.74c1.51.21,3.78.56,4.12.67a.61.61,0,0,1,.45.43C73,43.13,72.69,43.46,70.11,46Z" fill="#003f3b"/><rect width="120" height="120" fill="none"/></g></g></svg>