<svg width="40" height="40" viewBox="0 0 20 21" fill="none" xmlns="http://www.w3.org/2000/svg">
<g clip-path="url(#clip0_83_221)">
<path d="M3.61927 2.12183C3.29607 2.17974 2.87687 2.41457 2.60807 2.68157C2.32807 2.95983 2.10567 3.37642 2.04007 3.73833C1.98567 4.04232 1.98567 16.199 2.04007 16.5014C2.10567 16.8633 2.32807 17.2799 2.60807 17.5581C2.88487 17.8364 3.29927 18.0584 3.65127 18.1211C3.95367 18.1758 16.0465 18.1758 16.3473 18.1211C16.7073 18.0551 17.1217 17.8316 17.3985 17.5501C17.6753 17.2718 17.8961 16.8552 17.9585 16.5014C18.0129 16.1974 18.0129 4.04071 17.9585 3.73833C17.8209 2.95983 17.1217 2.25855 16.3473 2.11861C16.0689 2.06714 3.88487 2.07036 3.61927 2.12183ZM14.4001 6.36171C14.6257 6.4936 14.7425 6.62871 14.8625 6.88446L14.9649 7.10321V10.1191V13.1349L14.8705 13.336C14.7473 13.5997 14.6161 13.7525 14.4049 13.8764L14.2369 13.9745H10.0001H5.76487L5.60167 13.8764C5.37607 13.7445 5.25927 13.6094 5.13927 13.3536L5.03687 13.1349V10.1191V7.10321L5.13927 6.88446C5.24807 6.65445 5.33607 6.54025 5.50727 6.4164C5.75047 6.24107 5.61287 6.24751 10.0561 6.25555L14.2369 6.26359L14.4001 6.36171Z" fill="white"/>
<path d="M8.50879 10.1191C8.50879 11.0616 8.51199 11.8369 8.51999 11.8369C8.56799 11.8369 11.4368 10.148 11.4368 10.1191C11.4368 10.0901 8.56799 8.40126 8.51999 8.40126C8.51359 8.40126 8.50879 9.17332 8.50879 10.1191Z" fill="white"/>
</g>
<defs>
<clipPath id="clip0_83_221">
<rect width="16" height="16.0845" fill="white" transform="translate(2 2.08154)"/>
</clipPath>
</defs>
</svg>
